<svg width="140" height="300" viewBox="0 0 140 300" fill="none" xmlns="http://www.w3.org/2000/svg">
<path d="M61.548 48.5912C63.8027 49.4579 65.2173 50.7019 65.2173 52.0859C65.2173 54.7019 60.1547 56.8245 53.9093 56.8245C47.664 56.8245 42.6013 54.7019 42.6013 52.0859C42.6013 49.4685 47.664 47.3472 53.9093 47.3472C54.568 47.3472 55.2133 47.3699 55.8413 47.4165" stroke="black" stroke-linecap="round" stroke-linejoin="round"/>
<path d="M70.7551 52.2253C70.7551 48.2347 63.2337 45 53.9564 45C45.2591 45 38.1057 47.8427 37.2457 51.4867V58.232C37.2457 59.264 40.5377 64.9893 54.0511 64.9893C67.5631 64.9893 70.7551 59.076 70.7551 58.044V52.2253Z" stroke="black" stroke-linecap="round" stroke-linejoin="round"/>
<path d="M46.2616 58.138C46.2616 58.138 53.7696 60.5767 64.8429 57.3874" stroke="black" stroke-linecap="round" stroke-linejoin="round"/>
<path d="M37.1587 56.9187C37.1587 56.9187 34.9987 59.076 35 60.672C35 60.672 39.788 61.892 42.7907 66.96C48.42 65.2707 60.8067 65.8347 65.0293 66.96C66.7187 63.8627 70.0973 61.6107 72.8187 60.5787C72.8187 57.7627 70.7547 57.012 70.7547 57.012" stroke="black" stroke-linecap="round" stroke-linejoin="round"/>
<path d="M72.8188 60.5781V74.9354L65.0295 81.1301L42.7908 81.2234L35.0015 74.9354L35.0001 60.6715" stroke="black" stroke-linecap="round" stroke-linejoin="round"/>
<path d="M42.79 66.9597V81.2237" stroke="black" stroke-linecap="round" stroke-linejoin="round"/>
<path d="M65.0298 66.9597V81.129" stroke="black" stroke-linecap="round" stroke-linejoin="round"/>
<path d="M44.1313 53.7092C45.086 51.5225 49.102 49.8798 53.9087 49.8798C58.686 49.8798 62.678 51.4998 63.6687 53.6652" stroke="black" stroke-linecap="round" stroke-linejoin="round"/>
<path d="M45.8748 54.8405C47.6908 53.6312 50.6388 52.8458 53.9641 52.8458C57.3241 52.8458 60.2948 53.6458 62.1068 54.8738" stroke="black" stroke-linecap="round" stroke-linejoin="round"/>
<path d="M50.5142 56.1614C51.6155 55.9588 52.8115 55.8481 54.0595 55.8481C55.3475 55.8481 56.5782 55.9668 57.7088 56.1801" stroke="black" stroke-linecap="round" stroke-linejoin="round"/>
<path d="M82.1561 82.9512L81.2388 82.3965V80.5938H89.2814V81.5538H82.1561V82.9512Z" fill="black"/>
<path d="M85.2485 76.8606C86.3578 76.8606 88.5551 76.4553 88.5551 75.0153C88.5551 73.5753 86.3578 73.17 85.2485 73.17C84.1405 73.17 81.9218 73.5753 81.9218 75.0153C81.9218 76.4553 84.1405 76.8606 85.2485 76.8606ZM85.2605 77.8206C83.6071 77.8206 81.0671 77.0953 81.0671 75.0153C81.0671 72.9353 83.6071 72.21 85.2605 72.21C86.9018 72.21 89.4511 72.946 89.4511 75.0153C89.4511 77.0846 86.9018 77.8206 85.2605 77.8206Z" fill="black"/>
<path d="M85.2485 70.6953C86.3578 70.6953 88.5551 70.2899 88.5551 68.8499C88.5551 67.4099 86.3578 67.0046 85.2485 67.0046C84.1405 67.0046 81.9218 67.4099 81.9218 68.8499C81.9218 70.2899 84.1405 70.6953 85.2485 70.6953ZM85.2605 71.6553C83.6071 71.6553 81.0671 70.9299 81.0671 68.8499C81.0671 66.7699 83.6071 66.0446 85.2605 66.0446C86.9018 66.0446 89.4511 66.7806 89.4511 68.8499C89.4511 70.9193 86.9018 71.6553 85.2605 71.6553Z" fill="black"/>
<path d="M82.1561 65.2662H81.2388V59.4742L89.4521 64.4876L88.9708 65.2662L82.1561 61.1062V65.2662Z" fill="black"/>
<path d="M82.1561 58.2904L81.2388 57.7357V55.9331H89.2814V56.8931H82.1561V58.2904Z" fill="black"/>
<path d="M86.9125 48.6374C85.9098 48.6374 85.1845 49.4907 85.1845 50.3441C85.1845 51.2187 85.9858 52.0507 86.8591 52.0507C87.7871 52.0507 88.5551 51.2614 88.5551 50.3441C88.5551 49.4481 87.8098 48.6374 86.9125 48.6374ZM81.5578 48.6694L84.4591 50.8134L84.4818 50.7921C84.3645 50.5574 84.2885 50.2907 84.2885 50.0027C84.2885 48.6801 85.5151 47.6774 86.8058 47.6774C88.2778 47.6774 89.4511 48.8721 89.4511 50.3334C89.4511 51.7201 88.2991 53.0107 86.8818 53.0107C86.0698 53.0107 85.3871 52.6054 84.7591 52.1361L81.0671 49.3947L81.5578 48.6694Z" fill="black"/>
</svg>
