<svg width="140" height="300" viewBox="0 0 140 300" fill="none" xmlns="http://www.w3.org/2000/svg">
<path d="M63.151 60.9667L16.1217 48.9854C16.1217 48.9854 8.71767 47.0254 9.00834 35.3387C9.29767 23.6534 15.323 17.8454 15.323 17.8454C20.403 11.9654 26.791 14.5787 26.791 14.5787L71.571 24.2374" stroke="black" stroke-linecap="round" stroke-linejoin="round"/>
<path d="M56.1822 46.3769C56.9809 34.5449 63.8769 23.2209 71.9329 24.3089C79.9902 25.3982 81.0075 33.7449 81.0075 33.7449L80.4995 35.8502L60.6102 46.0142L56.1822 46.3769ZM56.1822 46.3769L54.3689 45.9409C54.3689 45.9409 54.0782 47.6822 54.6582 51.4582L79.6289 38.6822L79.4835 36.4315" stroke="black" stroke-linecap="round" stroke-linejoin="round"/>
<path d="M54.6589 51.4577L56.7629 51.967L61.2629 51.603L80.7176 41.587L81.5883 39.263L79.6296 38.6817" stroke="black" stroke-linecap="round" stroke-linejoin="round"/>
<path d="M81.5885 39.2637C81.5885 39.2637 81.0965 53.9837 71.7885 60.0957C64.6032 64.8144 57.5605 58.0637 56.7632 51.9664" stroke="black" stroke-linecap="round" stroke-linejoin="round"/>
<path d="M65.6914 32.0032C65.6914 32.0032 70.1194 26.3419 75.7807 29.1725C79.4101 30.9152 80.4994 35.8512 80.4994 35.8512" stroke="black" stroke-linecap="round" stroke-linejoin="round"/>
<path d="M62.3529 37.7388C62.3529 37.7388 60.6836 41.9482 60.6102 46.0135" stroke="black" stroke-linecap="round" stroke-linejoin="round"/>
<path d="M61.2631 51.6035C61.2631 51.6035 63.0071 59.3702 70.4097 58.1355C77.8137 56.9022 80.5711 46.1609 80.7177 41.5862" stroke="black" stroke-linecap="round" stroke-linejoin="round"/>
<path d="M19.0247 46.8079C19.0247 46.8079 13.942 40.7826 13.218 36.7186C13.798 32.5799 21.2754 29.9679 24.542 30.1133C27.8074 30.2573 35.7194 31.5653 38.986 40.2759C38.986 40.2759 39.8567 42.3053 39.058 43.7586C38.2607 45.2119 33.9047 48.7679 33.9047 48.7679" stroke="black" stroke-linecap="round" stroke-linejoin="round"/>
<path d="M28.7838 30.9472C30.5891 32.5779 32.1464 35.1152 33.0651 38.1739C34.9024 44.2939 33.8304 50.0712 29.1144 51.4539C24.9038 52.6885 21.0771 48.4432 19.2398 42.3232C17.8491 37.6939 18.5398 33.1925 20.6144 30.7805" stroke="black" stroke-linecap="round" stroke-linejoin="round"/>
<path d="M30.2486 50.4498C27.0953 49.7458 24.3913 46.0751 22.9379 41.2284C21.7206 37.1778 22.0979 33.2244 23.6006 30.6858" stroke="black" stroke-linecap="round" stroke-linejoin="round"/>
<path d="M31.8425 48.8235C29.4838 47.3715 27.5158 44.2422 26.3505 40.3582C25.2532 36.7048 25.4505 33.1302 26.6025 30.6008" stroke="black" stroke-linecap="round" stroke-linejoin="round"/>
<path d="M33.2057 45.6047C31.8937 43.9741 30.8044 41.7807 30.0524 39.2701C29.295 36.7514 29.155 34.2714 29.5177 32.1447" stroke="black" stroke-linecap="round" stroke-linejoin="round"/>
<path d="M93.2009 58.4229L92.2849 57.8669L92.2876 56.0655L100.326 56.0789L100.325 57.0375L93.2036 57.0255L93.2009 58.4229Z" fill="black"/>
<path d="M96.3024 52.3374C97.4117 52.3387 99.609 51.9374 99.6104 50.4987C99.6144 49.06 97.4184 48.6494 96.309 48.6467C95.1997 48.6454 92.9824 49.048 92.9797 50.4867C92.9784 51.9254 95.1944 52.336 96.3024 52.3374ZM96.313 53.296C94.661 53.2934 92.1237 52.5654 92.1277 50.4854C92.1304 48.4067 94.669 47.6867 96.3224 47.6894C97.9624 47.692 100.51 48.4307 100.506 50.4987C100.502 52.568 97.9544 53.2987 96.313 53.296Z" fill="black"/>
<path d="M96.3127 46.1708C97.4221 46.1721 99.6194 45.7734 99.6207 44.3334C99.6234 42.8934 97.4274 42.4854 96.3194 42.4828C95.2101 42.4814 92.9927 42.8828 92.9901 44.3214C92.9874 45.7614 95.2034 46.1694 96.3127 46.1708ZM96.3234 47.1321C94.6714 47.1294 92.1341 46.3988 92.1367 44.3201C92.1407 42.2428 94.6794 41.5214 96.3314 41.5241C97.9727 41.5268 100.519 42.2668 100.515 44.3334C100.513 46.4014 97.9634 47.1348 96.3234 47.1321Z" fill="black"/>
<path d="M93.2342 38.1356L94.8862 38.6396L94.8556 38.0756C94.8582 36.517 96.1916 35.4956 97.6729 35.4983C99.3689 35.501 100.529 36.8263 100.526 38.477C100.524 39.469 100.001 40.461 99.1156 40.9276L98.4129 40.1796C99.0956 39.937 99.6089 39.1156 99.6102 38.4036C99.6116 37.3143 98.7169 36.4596 97.6396 36.4583C96.6062 36.4556 95.7302 37.341 95.7302 38.3743C95.7289 38.9396 95.9942 39.525 96.4409 39.8796V40.0703L92.3169 38.8276L92.3209 35.6076L93.2382 35.609L93.2342 38.1356Z" fill="black"/>
<path d="M93.2417 33.7619L92.3257 33.2059L92.3284 31.4045L100.367 31.4165L100.366 32.3765L93.243 32.3659L93.2417 33.7619Z" fill="black"/>
<path d="M95.0147 24.8693V24.892L98.3267 27.156L98.3293 24.8747L95.0147 24.8693ZM98.3333 23L99.2093 23.0013L99.2067 23.9173L100.379 23.92L100.377 24.8773L99.2053 24.876L99.1987 28.8413L92 23.9053L98.332 23.916L98.3333 23Z" fill="black"/>
</svg>
