<svg width="140" height="300" viewBox="0 0 140 300" fill="none" xmlns="http://www.w3.org/2000/svg">
<path d="M55.0875 145.182L54.1702 144.627V142.826H62.2102V143.786H55.0875V145.182Z" fill="black"/>
<path d="M58.1787 139.092C59.288 139.092 61.484 138.686 61.484 137.248C61.484 135.808 59.288 135.402 58.1787 135.402C57.0707 135.402 54.8533 135.808 54.8533 137.248C54.8533 138.686 57.0707 139.092 58.1787 139.092ZM58.1907 140.05C56.5387 140.05 54 139.326 54 137.248C54 135.169 56.5387 134.444 58.1907 134.444C59.832 134.444 62.3787 135.178 62.3787 137.248C62.3787 139.316 59.832 140.05 58.1907 140.05Z" fill="black"/>
<path d="M55.0875 132.851L54.1702 132.297V130.495H62.2102V131.455H55.0875V132.851Z" fill="black"/>
<path d="M57.5406 125.066C57.5406 124.202 57.2206 123.487 56.2486 123.487C55.4393 123.487 54.8739 124.085 54.8739 124.885C54.8739 125.61 55.3326 126.11 56.0259 126.217V127.209C54.7046 127.017 54.0006 126.175 54.0006 124.853C54.0006 123.573 54.8219 122.529 56.1646 122.529C56.9539 122.529 57.5926 122.87 57.9766 123.551C58.3499 122.763 59.1073 122.411 59.9699 122.411C61.4726 122.411 62.3793 123.541 62.3793 124.981C62.3793 126.238 61.5486 127.369 60.2259 127.433V126.462C61.0139 126.366 61.5059 125.674 61.5059 124.906C61.5059 124.01 60.8019 123.371 59.9286 123.371C58.9046 123.371 58.2953 124.074 58.3713 125.066H57.5406Z" fill="black"/>
<path d="M55.0875 118.73L56.7408 119.232L56.7088 118.666C56.7088 117.11 58.0408 116.086 59.5222 116.086C61.2182 116.086 62.3795 117.408 62.3795 119.061C62.3795 120.052 61.8582 121.044 60.9728 121.513L60.2702 120.766C60.9515 120.521 61.4622 119.701 61.4622 118.986C61.4622 117.898 60.5662 117.046 59.4915 117.046C58.4568 117.046 57.5822 117.93 57.5822 118.965C57.5822 119.53 57.8488 120.117 58.2955 120.468V120.66L54.1702 119.424V116.204H55.0875V118.73Z" fill="black"/>
<path d="M55.0875 114.356L54.1702 113.801V112H62.2102V112.96H55.0875V114.356Z" fill="black"/>
<path d="M37.155 150.225C38.3697 149.819 39.4724 149.137 40.379 148.233" stroke="black" stroke-miterlimit="2" stroke-linecap="round" stroke-linejoin="round"/>
<path d="M23.0834 150.225C25.3514 150.98 27.7274 151.365 30.1194 151.365C32.51 151.365 34.8874 150.98 37.1554 150.225" stroke="black" stroke-miterlimit="2" stroke-linecap="round" stroke-linejoin="round"/>
<path d="M19.8594 148.233C20.766 149.137 21.8687 149.818 23.0834 150.225" stroke="black" stroke-miterlimit="2" stroke-linecap="round" stroke-linejoin="round"/>
<path d="M19.7891 148.158C19.8131 148.184 19.8357 148.207 19.8597 148.234" stroke="black" stroke-miterlimit="2" stroke-linecap="round" stroke-linejoin="round"/>
<path d="M40.3789 148.233C40.4029 148.206 40.4256 148.184 40.4496 148.157" stroke="black" stroke-miterlimit="2" stroke-linecap="round" stroke-linejoin="round"/>
<path d="M15.7161 143.645L19.7894 148.158" stroke="black" stroke-miterlimit="2" stroke-linecap="round" stroke-linejoin="round"/>
<path d="M44.5222 143.645L40.4489 148.158" stroke="black" stroke-miterlimit="2" stroke-linecap="round" stroke-linejoin="round"/>
<path d="M39.9285 146.527C41.6231 145.962 43.1631 145.009 44.4258 143.749" stroke="black" stroke-miterlimit="2" stroke-linecap="round" stroke-linejoin="round"/>
<path d="M20.3098 146.527C23.4725 147.579 26.7845 148.118 30.1191 148.118C33.4525 148.118 36.7658 147.579 39.9285 146.527" stroke="black" stroke-miterlimit="2" stroke-linecap="round" stroke-linejoin="round"/>
<path d="M15.8125 143.749C17.0752 145.009 18.6152 145.962 20.3098 146.527" stroke="black" stroke-miterlimit="2" stroke-linecap="round" stroke-linejoin="round"/>
<path d="M15 141.785C15 142.522 15.2947 143.228 15.812 143.749" stroke="black" stroke-miterlimit="2" stroke-linecap="round" stroke-linejoin="round"/>
<path d="M44.4259 143.749C44.9446 143.227 45.2379 142.522 45.2379 141.785" stroke="black" stroke-miterlimit="2" stroke-linecap="round" stroke-linejoin="round"/>
<path d="M27.9558 18.976C28.6745 19.0467 29.3958 19.0813 30.1198 19.0813C32.5105 19.0813 34.8865 18.696 37.1545 17.9413" stroke="black" stroke-miterlimit="2" stroke-linecap="round" stroke-linejoin="round"/>
<path d="M37.155 17.9407C38.3697 17.534 39.4724 16.8527 40.379 15.9474" stroke="black" stroke-miterlimit="2" stroke-linecap="round" stroke-linejoin="round"/>
<path d="M19.8594 15.9473C20.766 16.8526 21.8687 17.534 23.0834 17.9406" stroke="black" stroke-miterlimit="2" stroke-linecap="round" stroke-linejoin="round"/>
<path d="M19.8594 13.1334C19.4874 13.5067 19.2754 14.0134 19.2754 14.5401C19.2754 15.0681 19.4874 15.5734 19.8594 15.9467" stroke="black" stroke-miterlimit="2" stroke-linecap="round" stroke-linejoin="round"/>
<path d="M23.0834 11.1413C21.8687 11.5467 20.766 12.228 19.8594 13.1333" stroke="black" stroke-miterlimit="2" stroke-linecap="round" stroke-linejoin="round"/>
<path d="M37.155 11.1413C34.887 10.3853 32.511 9.99999 30.1203 9.99999C27.7283 9.99999 25.351 10.3853 23.083 11.1413" stroke="black" stroke-miterlimit="2" stroke-linecap="round" stroke-linejoin="round"/>
<path d="M40.379 13.1335C39.4724 12.2281 38.3697 11.5468 37.155 11.1415" stroke="black" stroke-miterlimit="2" stroke-linecap="round" stroke-linejoin="round"/>
<path d="M40.3789 15.9473C40.7509 15.574 40.9629 15.0686 40.9629 14.5393C40.9629 14.014 40.7509 13.5073 40.3789 13.134" stroke="black" stroke-miterlimit="2" stroke-linecap="round" stroke-linejoin="round"/>
<path d="M39.9285 24.3197C41.6231 23.7544 43.1631 22.8037 44.4258 21.5411" stroke="black" stroke-miterlimit="2" stroke-linecap="round" stroke-linejoin="round"/>
<path d="M20.3098 24.3197C23.4725 25.3744 26.7845 25.9104 30.1191 25.9104C33.4525 25.9104 36.7658 25.3744 39.9285 24.3197" stroke="black" stroke-miterlimit="2" stroke-linecap="round" stroke-linejoin="round"/>
<path d="M15.8125 21.5411C17.0752 22.8037 18.6152 23.7544 20.3098 24.3197" stroke="black" stroke-miterlimit="2" stroke-linecap="round" stroke-linejoin="round"/>
<path d="M15.7161 17.722C15.2548 18.2313 15.0001 18.894 15.0001 19.5807C15.0001 20.3153 15.2948 21.022 15.8121 21.5407" stroke="black" stroke-miterlimit="2" stroke-linecap="round" stroke-linejoin="round"/>
<path d="M44.4259 21.541C44.9446 21.021 45.2379 20.3157 45.2379 19.5797C45.2379 18.8944 44.9832 18.2317 44.5219 17.7224" stroke="black" stroke-miterlimit="2" stroke-linecap="round" stroke-linejoin="round"/>
<path d="M19.7892 13.2077L15.7158 17.7224" stroke="black" stroke-miterlimit="2" stroke-linecap="round" stroke-linejoin="round"/>
<path d="M40.4492 13.2077L44.5226 17.7224" stroke="black" stroke-miterlimit="2" stroke-linecap="round" stroke-linejoin="round"/>
<path d="M15 19.5802V141.785" stroke="black" stroke-miterlimit="2" stroke-linecap="round" stroke-linejoin="round"/>
<path d="M45.2383 19.5802V141.785" stroke="black" stroke-miterlimit="2" stroke-linecap="round" stroke-linejoin="round"/>
<path d="M24.7708 29.2291V143.802" stroke="black" stroke-linecap="round" stroke-linejoin="round"/>
<path d="M35.4402 29.2228V143.815" stroke="black" stroke-linecap="round" stroke-linejoin="round"/>
<path d="M19.4402 27.7976V142.406" stroke="black" stroke-linecap="round" stroke-linejoin="round"/>
<path d="M30.1068 29.6966V144.327" stroke="black" stroke-linecap="round" stroke-linejoin="round"/>
<path d="M40.7748 27.7682V142.342" stroke="black" stroke-linecap="round" stroke-linejoin="round"/>
</svg>
