<svg width="140" height="300" viewBox="0 0 140 300" fill="none" xmlns="http://www.w3.org/2000/svg">
<path d="M41.2343 50.8719C34.9956 48.5599 31.0649 45.1852 31.0649 41.4279C31.0649 34.4559 44.5943 28.8052 61.2796 28.8052C77.9676 28.8052 91.4956 34.4559 91.4956 41.4279C91.4956 48.3986 77.9676 54.0492 61.2796 54.0492C56.8489 54.0492 52.6396 53.6506 48.8476 52.9346" stroke="black" stroke-linecap="round" stroke-linejoin="round"/>
<path d="M31 42.3934V47.0081C31 53.9747 44.5227 59.6227 61.204 59.6227C77.8853 59.6227 91.408 53.9747 91.408 47.0081V42.9054" stroke="black" stroke-linecap="round" stroke-linejoin="round"/>
<path d="M69.974 37.2912C72.7393 38.2965 74.486 39.7725 74.486 41.4179C74.486 44.4485 68.562 46.9045 61.2567 46.9045C53.95 46.9045 48.0273 44.4485 48.0273 41.4179C48.0273 38.3885 53.95 35.9312 61.2567 35.9312C62.542 35.9312 63.7833 36.0085 64.958 36.1499" stroke="black" stroke-linecap="round" stroke-linejoin="round"/>
<path d="M50.2864 43.8382C52.6637 42.3782 56.6904 41.4195 61.257 41.4195C65.805 41.4195 69.817 42.3702 72.1984 43.8208" stroke="black" stroke-linecap="round" stroke-linejoin="round"/>
<path d="M101.051 61.4019L100.133 60.8472V59.0445H108.176V60.0045H101.051V61.4019Z" fill="black"/>
<path d="M104.143 55.3113C105.253 55.3113 107.45 54.906 107.45 53.466C107.45 52.026 105.253 51.6207 104.143 51.6207C103.035 51.6207 100.817 52.026 100.817 53.466C100.817 54.906 103.035 55.3113 104.143 55.3113ZM104.155 56.2713C102.502 56.2713 99.9619 55.546 99.9619 53.466C99.9619 51.386 102.502 50.6607 104.155 50.6607C105.797 50.6607 108.346 51.3967 108.346 53.466C108.346 55.5353 105.797 56.2713 104.155 56.2713Z" fill="black"/>
<path d="M104.143 49.146C105.253 49.146 107.45 48.7406 107.45 47.3006C107.45 45.8606 105.253 45.4553 104.143 45.4553C103.035 45.4553 100.817 45.8606 100.817 47.3006C100.817 48.7406 103.035 49.146 104.143 49.146ZM104.155 50.106C102.502 50.106 99.9619 49.3806 99.9619 47.3006C99.9619 45.2206 102.502 44.4953 104.155 44.4953C105.797 44.4953 108.346 45.2313 108.346 47.3006C108.346 49.37 105.797 50.106 104.155 50.106Z" fill="black"/>
<path d="M105.936 42.6931C106.746 42.6931 107.451 41.9251 107.451 41.1358C107.451 40.3464 106.746 39.5784 105.936 39.5784C105.082 39.5784 104.42 40.3251 104.42 41.1358C104.42 41.9464 105.082 42.6931 105.936 42.6931ZM102.203 42.5011C102.843 42.5011 103.568 41.8078 103.568 41.1358C103.568 40.4638 102.843 39.7704 102.203 39.7704C101.435 39.7704 100.816 40.4104 100.816 41.1358C100.816 41.8611 101.435 42.5011 102.203 42.5011ZM104.006 42.3838C103.631 43.0451 102.992 43.4398 102.203 43.4398C100.891 43.4398 99.9629 42.4158 99.9629 41.1358C99.9629 39.8558 100.891 38.8318 102.203 38.8318C102.992 38.8318 103.631 39.2264 104.006 39.8878C104.294 39.0558 105.072 38.6184 105.936 38.6184C107.43 38.6184 108.347 39.7704 108.347 41.1358C108.347 42.5011 107.43 43.6531 105.936 43.6531C105.072 43.6531 104.294 43.2158 104.006 42.3838Z" fill="black"/>
<path d="M107.258 32.3785H108.175V37.5732L103.855 34.0532C103.451 33.7225 102.95 33.3385 102.415 33.3385C101.573 33.3385 100.881 34.0852 100.881 34.9172C100.881 35.7385 101.542 36.4105 102.351 36.4639V37.4665C100.923 37.3065 99.9619 36.3785 99.9619 34.9172C99.9619 33.5519 100.975 32.3785 102.374 32.3785C102.97 32.3785 103.567 32.6025 104.026 32.9759L107.258 35.6212V32.3785Z" fill="black"/>
<path d="M102.544 26.96C101.69 26.96 100.858 27.728 100.858 28.6027C100.858 29.5627 101.627 30.3733 102.544 30.3733C103.504 30.3733 104.23 29.4987 104.23 28.6667C104.23 27.6427 103.418 26.96 102.544 26.96ZM107.846 30.3413L104.955 28.1973L104.934 28.2187C105.051 28.4533 105.082 28.72 105.082 28.9973C105.082 30.3307 103.888 31.3333 102.608 31.3333C101.135 31.3333 99.9617 30.1387 99.9617 28.6773C99.9617 27.2907 101.115 26 102.532 26C103.334 26 104.026 26.4053 104.656 26.8747L108.347 29.616L107.846 30.3413Z" fill="black"/>
</svg>
