<svg width="140" height="300" viewBox="0 0 140 300" fill="none" xmlns="http://www.w3.org/2000/svg">
<path d="M79.8855 46.029C79.8855 46.029 82.1682 36.1716 70.4988 29.2423C63.8028 25.3423 53.8668 29.4583 46.3268 36.325C43.5535 38.8503 31.5468 56.3303 53.1615 68.337C57.1362 70.545 62.7708 74.0796 58.6842 85.565C57.7215 88.2676 55.7868 90.137 53.1655 91.865C51.8362 92.7423 48.6335 91.8596 47.5282 91.197C46.4242 90.5343 20.9135 77.945 20.0295 53.869C19.1468 29.7943 38.1615 7.33696 64.1615 7.00362C90.1615 6.67029 104.662 29.337 88.6615 61.1703C80.2588 77.8876 69.1615 80.837 67.9948 93.837V228.17C67.9948 228.17 67.1615 233.004 58.3282 233.004C49.4948 233.004 48.6615 228.337 48.6615 228.337L48.4948 92.0036" stroke="black" stroke-linecap="round" stroke-linejoin="round"/>
<path d="M56.6616 70.337C56.6616 70.337 82.495 47.6703 72.495 30.337" stroke="black" stroke-linecap="round" stroke-linejoin="round"/>
<path d="M78.4988 234.496L77.5814 233.941V232.138H85.6241V233.098H78.4988V234.496Z" fill="black"/>
<path d="M81.5912 228.405C82.7006 228.405 84.8979 228 84.8979 226.56C84.8979 225.12 82.7006 224.715 81.5912 224.715C80.4819 224.715 78.2646 225.12 78.2646 226.56C78.2646 228 80.4819 228.405 81.5912 228.405ZM81.6032 229.365C79.9499 229.365 77.4099 228.64 77.4099 226.56C77.4099 224.48 79.9499 223.755 81.6032 223.755C83.2446 223.755 85.7939 224.491 85.7939 226.56C85.7939 228.629 83.2446 229.365 81.6032 229.365Z" fill="black"/>
<path d="M78.4988 220.373L80.1521 220.875L80.1201 220.309C80.1201 218.752 81.4534 217.728 82.9361 217.728C84.6321 217.728 85.7948 219.051 85.7948 220.704C85.7948 221.696 85.2721 222.688 84.3868 223.157L83.6828 222.411C84.3641 222.165 84.8774 221.344 84.8774 220.629C84.8774 219.541 83.9801 218.688 82.9041 218.688C81.8681 218.688 80.9948 219.573 80.9948 220.608C80.9948 221.173 81.2601 221.76 81.7094 222.112V222.304L77.5814 221.067V217.845H78.4988V220.373Z" fill="black"/>
<path d="M83.2554 212.512C82.2527 212.512 81.5274 213.366 81.5274 214.219C81.5274 215.094 82.3287 215.926 83.202 215.926C84.13 215.926 84.898 215.136 84.898 214.219C84.898 213.323 84.1527 212.512 83.2554 212.512ZM77.9007 212.544L80.802 214.688L80.8247 214.667C80.7074 214.432 80.6314 214.166 80.6314 213.878C80.6314 212.555 81.858 211.552 83.1487 211.552C84.6207 211.552 85.794 212.747 85.794 214.208C85.794 215.595 84.642 216.886 83.2247 216.886C82.4127 216.886 81.73 216.48 81.102 216.011L77.41 213.27L77.9007 212.544Z" fill="black"/>
<path d="M78.4988 208.043L80.1521 208.544L80.1201 207.979C80.1201 206.421 81.4534 205.397 82.9361 205.397C84.6321 205.397 85.7948 206.72 85.7948 208.373C85.7948 209.365 85.2721 210.357 84.3868 210.827L83.6828 210.08C84.3641 209.835 84.8774 209.013 84.8774 208.299C84.8774 207.211 83.9801 206.357 82.9041 206.357C81.8681 206.357 80.9948 207.243 80.9948 208.277C80.9948 208.843 81.2601 209.429 81.7094 209.781V209.973L77.5814 208.736V205.515H78.4988V208.043Z" fill="black"/>
<path d="M78.4988 204.48H77.5814V198.688L85.7948 203.702L85.3134 204.48L78.4988 200.32V204.48Z" fill="black"/>
</svg>
