<svg width="140" height="300" viewBox="0 0 140 300" fill="none" xmlns="http://www.w3.org/2000/svg">
<path d="M31.0907 9.00255C43.7374 9.12122 53.4894 13.4532 53.4347 18.6826C53.3814 23.9106 41.8601 27.7292 30.8907 27.9359C18.2521 28.1732 8.04272 23.4812 8.09739 18.2506C8.15072 13.0239 18.4481 8.88255 31.0907 9.00255Z" stroke="black" stroke-miterlimit="500" stroke-linecap="round" stroke-linejoin="round"/>
<path d="M53.5296 18.8695L53.4282 21.3935C53.3882 25.4775 43.5109 30.5588 30.8389 30.4402C18.1749 30.3202 7.94555 26.0775 8.00022 20.9615L8.05622 18.5815" stroke="black" stroke-miterlimit="500" stroke-linecap="round" stroke-linejoin="round"/>
<path d="M14.6442 27.6587L20.5269 30.9601L20.4842 95.7254" stroke="black" stroke-miterlimit="500" stroke-linecap="round" stroke-linejoin="round"/>
<path d="M46.3929 27.7915L41.1302 31.0489C41.1302 31.0489 40.6382 35.2835 30.8049 35.1062C20.9742 34.9289 20.5275 30.9595 20.5275 30.9595" stroke="black" stroke-miterlimit="500" stroke-linecap="round" stroke-linejoin="round"/>
<path d="M41.2014 31.0136L40.9227 92.5936" stroke="black" stroke-miterlimit="500" stroke-linecap="round" stroke-linejoin="round"/>
<path d="M41.2276 90.7901C41.6262 91.1555 41.8849 91.5741 41.9702 92.0368C42.4156 94.5048 37.6716 97.9008 31.5529 98.9395C25.4342 99.9755 20.0956 98.4541 19.6462 95.9875C19.5116 95.2395 19.8396 94.4595 20.5289 93.7048" stroke="black" stroke-miterlimit="500" stroke-linecap="round" stroke-linejoin="round"/>
<path d="M41.2118 94.5619C41.6158 94.9272 41.8692 95.3459 41.9518 95.8099C42.4025 98.2779 37.6532 101.673 31.5358 102.711C25.4185 103.749 20.0945 102.594 19.6452 100.126C19.5078 99.3806 19.8358 98.5966 20.5292 97.8432" stroke="black" stroke-miterlimit="500" stroke-linecap="round" stroke-linejoin="round"/>
<path d="M41.277 98.3332C41.6757 98.6999 41.933 99.1172 42.017 99.5799C42.4664 102.049 37.7157 105.445 31.5984 106.483C25.4837 107.521 20.157 106.365 19.709 103.897C19.5717 103.149 19.8997 102.369 20.5904 101.613" stroke="black" stroke-miterlimit="500" stroke-linecap="round" stroke-linejoin="round"/>
<path d="M41.139 102.105C41.539 102.472 41.7937 102.891 41.8777 103.352C42.3297 105.824 37.579 109.217 31.463 110.256C25.3443 111.292 20.0203 110.137 19.571 107.671C19.4337 106.923 19.7617 106.143 20.4537 105.387" stroke="black" stroke-miterlimit="500" stroke-linecap="round" stroke-linejoin="round"/>
<path d="M41.1716 105.982C41.5729 106.348 41.8289 106.767 41.9103 107.23C42.3583 109.699 37.5609 112.992 31.4449 114.03C25.3289 115.067 19.9996 113.911 19.5529 111.443C19.4183 110.698 19.7449 109.915 20.4369 109.162" stroke="black" stroke-miterlimit="500" stroke-linecap="round" stroke-linejoin="round"/>
<path d="M41.1728 109.756C41.5728 110.123 41.8301 110.539 41.9155 111.003C42.3608 113.47 37.5661 116.763 31.4488 117.802C25.3288 118.839 20.0035 117.684 19.5555 115.216C19.4208 114.468 19.7448 113.688 20.4395 112.934" stroke="black" stroke-miterlimit="500" stroke-linecap="round" stroke-linejoin="round"/>
<path d="M41.2782 113.527C41.6769 113.894 41.9356 114.311 42.0209 114.777C42.4662 117.242 37.6716 120.535 31.5529 121.575C25.4342 122.61 20.1102 121.455 19.6609 118.989C19.5262 118.241 19.8542 117.461 20.5422 116.705" stroke="black" stroke-miterlimit="500" stroke-linecap="round" stroke-linejoin="round"/>
<path d="M41.2626 117.301C41.6666 117.666 41.92 118.083 42.0026 118.546C42.4533 121.015 37.6533 124.309 31.536 125.346C25.4186 126.383 20.0946 125.229 19.6453 122.761C19.508 122.014 19.836 121.231 20.5293 120.477" stroke="black" stroke-miterlimit="500" stroke-linecap="round" stroke-linejoin="round"/>
<path d="M41.3279 121.073C41.7265 121.437 41.9839 121.856 42.0679 122.32C42.5172 124.786 37.7159 128.078 31.5985 129.118C25.4839 130.157 20.1572 129 19.7092 126.533C19.5719 125.785 19.8999 125.005 20.5905 124.248" stroke="black" stroke-miterlimit="500" stroke-linecap="round" stroke-linejoin="round"/>
<path d="M41.1897 124.844C41.5897 125.209 41.8444 125.628 41.9284 126.089C42.3804 128.561 37.5791 131.852 31.4631 132.89C25.3444 133.926 20.0204 132.772 19.5711 130.306C19.4337 129.558 19.7617 128.778 20.4537 128.02" stroke="black" stroke-miterlimit="500" stroke-linecap="round" stroke-linejoin="round"/>
<path d="M41.1716 128.617C41.5729 128.984 41.8289 129.403 41.9103 129.865C42.3583 132.335 37.5609 135.627 31.4449 136.664C25.3289 137.701 19.9996 136.547 19.5529 134.077C19.4183 133.333 19.7449 132.549 20.4369 131.796" stroke="black" stroke-miterlimit="500" stroke-linecap="round" stroke-linejoin="round"/>
<path d="M41.1728 132.392C41.5728 132.757 41.8301 133.173 41.9155 133.638C42.3608 136.105 37.5661 139.397 31.4488 140.437C25.3288 141.474 20.0035 140.318 19.5555 137.85C19.4208 137.104 19.7448 136.322 20.4395 135.568" stroke="black" stroke-miterlimit="500" stroke-linecap="round" stroke-linejoin="round"/>
<path d="M41.2432 136.155C41.6418 136.52 41.9005 136.939 41.9859 137.402C42.4312 139.87 37.6712 143.17 31.5525 144.208C25.4352 145.246 20.1098 144.09 19.6605 141.624C19.5258 140.875 19.8539 140.096 20.5432 139.34" stroke="black" stroke-miterlimit="500" stroke-linecap="round" stroke-linejoin="round"/>
<path d="M41.2276 139.927C41.6316 140.292 41.8849 140.712 41.9676 141.174C42.4183 143.643 37.6529 146.943 31.5356 147.982C25.4196 149.016 20.0943 147.863 19.6449 145.395C19.5076 144.65 19.8356 143.867 20.5303 143.112" stroke="black" stroke-miterlimit="500" stroke-linecap="round" stroke-linejoin="round"/>
<path d="M41.2926 143.698C41.6913 144.064 41.9486 144.481 42.0326 144.945C42.482 147.414 37.7153 150.714 31.598 151.752C25.4846 152.79 20.1566 151.634 19.7086 149.166C19.5713 148.418 19.8993 147.638 20.5913 146.884" stroke="black" stroke-miterlimit="500" stroke-linecap="round" stroke-linejoin="round"/>
<path d="M41.1546 147.47C41.5546 147.837 41.8093 148.255 41.8933 148.717C42.3453 151.189 37.5786 154.487 31.4626 155.525C25.3453 156.562 20.02 155.406 19.5706 152.941C19.4333 152.193 19.7613 151.413 20.4546 150.655" stroke="black" stroke-miterlimit="500" stroke-linecap="round" stroke-linejoin="round"/>
<path d="M41.1364 151.243C41.5377 151.609 41.7937 152.029 41.875 152.492C42.323 154.96 37.5604 158.261 31.4444 159.299C25.3297 160.336 19.999 159.18 19.5524 156.713C19.4177 155.967 19.7444 155.185 20.4377 154.432" stroke="black" stroke-miterlimit="500" stroke-linecap="round" stroke-linejoin="round"/>
<path d="M41.1377 155.017C41.5377 155.384 41.795 155.8 41.8804 156.264C42.3257 158.732 37.5657 162.033 31.4484 163.071C25.3297 164.108 20.003 162.953 19.555 160.485C19.4204 159.737 19.7444 158.957 20.4404 158.203" stroke="black" stroke-miterlimit="500" stroke-linecap="round" stroke-linejoin="round"/>
<path d="M41.2432 158.789C41.6418 159.156 41.9005 159.573 41.9859 160.037C42.4312 162.504 37.6712 165.805 31.5525 166.844C25.4352 167.88 20.1098 166.724 19.6605 164.258C19.5258 163.512 19.8539 162.73 20.5432 161.974" stroke="black" stroke-miterlimit="500" stroke-linecap="round" stroke-linejoin="round"/>
<path d="M41.2276 162.562C41.6316 162.927 41.8849 163.346 41.9676 163.809C42.4183 166.277 37.6529 169.578 31.5356 170.615C25.4196 171.653 20.0943 170.498 19.6449 168.031C19.5076 167.283 19.8356 166.502 20.5303 165.746" stroke="black" stroke-miterlimit="500" stroke-linecap="round" stroke-linejoin="round"/>
<path d="M41.2118 166.312C41.6105 166.676 41.8678 167.095 41.9518 167.559C42.4011 170.027 37.7158 173.348 31.5985 174.387C25.4838 175.426 20.1571 174.268 19.7091 171.802C19.5718 171.054 19.8998 170.274 20.5905 169.516" stroke="black" stroke-miterlimit="500" stroke-linecap="round" stroke-linejoin="round"/>
<path d="M41.0738 170.084C41.4738 170.449 41.9245 170.885 42.0071 171.347C42.4591 173.819 37.5791 177.121 31.4631 178.16C25.3445 179.196 20.0205 178.04 19.5711 175.575C19.4338 174.829 19.7618 174.048 20.4538 173.289" stroke="black" stroke-miterlimit="500" stroke-linecap="round" stroke-linejoin="round"/>
<path d="M41.0557 173.857C41.457 174.223 41.9264 174.673 42.0077 175.135C42.4557 177.605 37.561 180.895 31.445 181.933C25.329 182.971 19.9997 181.815 19.553 179.347C19.417 178.602 19.745 177.819 20.437 177.065" stroke="black" stroke-miterlimit="500" stroke-linecap="round" stroke-linejoin="round"/>
<path d="M41.0569 177.631C41.4569 177.997 41.9222 178.403 42.0076 178.867C42.4529 181.335 37.5662 184.667 31.4489 185.706C25.3289 186.742 20.0036 185.587 19.5556 183.119C19.4196 182.373 19.7449 181.591 20.4396 180.837" stroke="black" stroke-miterlimit="500" stroke-linecap="round" stroke-linejoin="round"/>
<path d="M41.1623 181.403C41.561 181.768 41.8197 182.185 41.905 182.649C42.3503 185.117 37.6717 188.439 31.553 189.477C25.4343 190.515 20.1103 189.359 19.661 186.892C19.525 186.144 19.8543 185.364 20.5423 184.609" stroke="black" stroke-miterlimit="500" stroke-linecap="round" stroke-linejoin="round"/>
<path d="M41.1467 185.174C41.5507 185.541 41.8041 185.96 41.8867 186.421C42.3374 188.89 37.6534 192.212 31.5361 193.25C25.4187 194.286 20.0947 193.132 19.6454 190.665C19.5081 189.918 19.8361 189.136 20.5294 188.381" stroke="black" stroke-miterlimit="500" stroke-linecap="round" stroke-linejoin="round"/>
<path d="M41.2118 188.946C41.6105 189.312 41.8678 189.729 41.9518 190.193C42.4011 192.662 37.7158 195.984 31.5985 197.021C25.4838 198.058 20.1571 196.904 19.7091 194.437C19.5718 193.688 19.8998 192.908 20.5905 192.152" stroke="black" stroke-miterlimit="500" stroke-linecap="round" stroke-linejoin="round"/>
<path d="M41.0738 192.718C41.4738 193.085 41.8685 193.502 41.9511 193.965C42.4031 196.435 37.5791 199.757 31.4631 200.794C25.3445 201.831 20.0205 200.675 19.5711 198.209C19.4338 197.462 19.7618 196.681 20.4538 195.925" stroke="black" stroke-miterlimit="500" stroke-linecap="round" stroke-linejoin="round"/>
<path d="M41.0557 196.491C41.457 196.857 41.8704 197.292 41.9517 197.753C42.3997 200.223 37.561 203.531 31.445 204.568C25.329 205.605 19.9997 204.449 19.553 201.983C19.417 201.236 19.745 200.455 20.437 199.7" stroke="black" stroke-miterlimit="500" stroke-linecap="round" stroke-linejoin="round"/>
<path d="M41.0817 200.388C41.4817 200.755 41.739 201.172 41.8244 201.636C42.2697 204.103 37.5657 207.303 31.4484 208.34C25.3297 209.377 20.003 208.223 19.555 205.755C19.4204 205.007 19.7444 204.227 20.4404 203.472" stroke="black" stroke-miterlimit="500" stroke-linecap="round" stroke-linejoin="round"/>
<path d="M41.1872 204.16C41.5858 204.527 41.8445 204.943 41.9299 205.408C42.3752 207.875 37.6712 211.075 31.5525 212.112C25.4352 213.149 20.1098 211.993 19.6605 209.527C19.5258 208.78 19.8539 207.999 20.5432 207.244" stroke="black" stroke-miterlimit="500" stroke-linecap="round" stroke-linejoin="round"/>
<path d="M41.1716 207.933C41.5756 208.298 41.8289 208.717 41.9116 209.178C42.3623 211.647 37.6529 214.847 31.5356 215.885C25.4196 216.921 20.0943 215.767 19.6449 213.299C19.5076 212.553 19.8356 211.77 20.5303 211.015" stroke="black" stroke-miterlimit="500" stroke-linecap="round" stroke-linejoin="round"/>
<path d="M41.2366 211.704C41.6353 212.068 41.8926 212.488 41.9766 212.952C42.426 215.419 37.7153 218.618 31.598 219.656C25.4846 220.695 20.1566 219.538 19.7086 217.071C19.5713 216.323 19.8993 215.543 20.5913 214.786" stroke="black" stroke-miterlimit="500" stroke-linecap="round" stroke-linejoin="round"/>
<path d="M41.0986 215.476C41.4986 215.842 41.7533 216.259 41.8373 216.722C42.2893 219.194 37.5786 222.391 31.4626 223.428C25.3453 224.466 20.02 223.31 19.5706 220.844C19.4333 220.098 19.7613 219.316 20.4546 218.559" stroke="black" stroke-miterlimit="500" stroke-linecap="round" stroke-linejoin="round"/>
<path d="M41.0804 219.249C41.4817 219.616 41.7377 220.033 41.819 220.497C42.267 222.967 37.5604 226.165 31.4444 227.203C25.3297 228.24 19.999 227.085 19.5524 224.616C19.4177 223.872 19.7444 223.088 20.4377 222.335" stroke="black" stroke-miterlimit="500" stroke-linecap="round" stroke-linejoin="round"/>
<path d="M41.0817 223.023C41.4817 223.389 41.739 223.806 41.8244 224.27C42.2697 226.738 37.5657 229.937 31.4484 230.974C25.3297 232.013 20.003 230.857 19.555 228.389C19.4204 227.642 19.7444 226.861 20.4404 226.106" stroke="black" stroke-miterlimit="500" stroke-linecap="round" stroke-linejoin="round"/>
<path d="M41.1872 226.795C41.5858 227.161 41.8445 227.578 41.9299 228.042C42.3752 230.51 37.6712 233.709 31.5525 234.746C25.4352 235.783 20.1098 234.629 19.6605 232.162C19.5258 231.414 19.8539 230.634 20.5432 229.879" stroke="black" stroke-miterlimit="500" stroke-linecap="round" stroke-linejoin="round"/>
<path d="M41.1716 230.566C41.5756 230.933 41.8289 231.352 41.9116 231.814C42.3623 234.282 37.6529 237.481 31.5356 238.52C25.4196 239.556 20.0943 238.401 19.6449 235.933C19.5076 235.188 19.8356 234.404 20.5303 233.65" stroke="black" stroke-miterlimit="500" stroke-linecap="round" stroke-linejoin="round"/>
<path d="M41.1702 234.411C41.5689 234.776 41.8262 235.195 41.9102 235.657C42.3596 238.127 37.7156 241.253 31.5982 242.289C25.4836 243.328 20.1569 242.172 19.7089 239.705C19.5716 238.957 19.8996 238.177 20.5902 237.421" stroke="black" stroke-miterlimit="500" stroke-linecap="round" stroke-linejoin="round"/>
<path d="M41.1703 238.143C41.5703 238.51 41.8249 238.927 41.9089 239.39C42.3609 241.86 37.5796 245.026 31.4636 246.063C25.3449 247.1 20.0209 245.944 19.5716 243.478C19.4329 242.731 19.7609 241.95 20.4543 241.195" stroke="black" stroke-miterlimit="500" stroke-linecap="round" stroke-linejoin="round"/>
<path d="M41.1703 241.931C41.5716 242.299 41.8276 242.718 41.9089 243.181C42.3569 245.649 37.5609 248.799 31.4449 249.837C25.3289 250.875 19.9996 249.719 19.5529 247.251C19.4183 246.506 19.7449 245.723 20.4369 244.969" stroke="black" stroke-miterlimit="500" stroke-linecap="round" stroke-linejoin="round"/>
<path d="M41.2262 245.775C41.6262 246.142 41.8836 246.559 41.9689 247.022C42.4142 249.49 37.5662 252.571 31.4489 253.608C25.3289 254.646 20.0036 253.491 19.5556 251.024C19.4209 250.275 19.7449 249.496 20.4396 248.742" stroke="black" stroke-miterlimit="500" stroke-linecap="round" stroke-linejoin="round"/>
<path d="M41.2262 249.564C41.6262 249.93 41.8836 250.346 41.9689 250.812C42.4142 253.278 37.6902 256.342 31.5742 257.381C25.4542 258.418 20.1289 257.264 19.6809 254.796C19.5449 254.048 19.8689 253.268 20.5636 252.513" stroke="black" stroke-miterlimit="500" stroke-linecap="round" stroke-linejoin="round"/>
<path d="M41.2262 253.352C41.6275 253.719 41.8835 254.135 41.9702 254.599C42.4155 257.067 37.8142 260.115 31.6982 261.152C25.5795 262.189 20.0675 261.055 19.6195 258.588C19.4835 257.84 19.8089 257.06 20.5022 256.304" stroke="black" stroke-miterlimit="500" stroke-linecap="round" stroke-linejoin="round"/>
<path d="M26.6754 20.979L23.3088 18.435L26.7528 15.811L34.7128 15.7283L38.5141 18.4443L34.7381 21.0963L26.6754 20.979Z" stroke="black" stroke-miterlimit="2" stroke-linecap="round" stroke-linejoin="round"/>
<path d="M26.764 20.7714L26.752 15.894" stroke="black" stroke-miterlimit="2" stroke-linecap="round" stroke-linejoin="round"/>
<path d="M34.7301 20.4694L34.7128 15.728" stroke="black" stroke-miterlimit="2" stroke-linecap="round" stroke-linejoin="round"/>
<path d="M20.5178 260.124V266.931C20.5178 266.931 20.5578 269.564 26.9245 270.716" stroke="black" stroke-miterlimit="500" stroke-linecap="round" stroke-linejoin="round"/>
<path d="M32.9449 271.089C32.9449 271.089 41.0036 269.899 41.0036 266.747V257.42" stroke="black" stroke-miterlimit="500" stroke-linecap="round" stroke-linejoin="round"/>
<path d="M20.7262 267.781L29.2395 279.724C29.2395 279.724 30.3915 281.226 32.0489 279.992L40.7809 267.837" stroke="black" stroke-miterlimit="500" stroke-linecap="round" stroke-linejoin="round"/>
<path d="M54.9706 240.746L54.152 240.192V238.388H61.32V239.349H54.9706V240.746Z" fill="black"/>
<path d="M54.9706 222.116L54.152 221.562V219.758H61.32V220.719H54.9706V222.116Z" fill="black"/>
<path d="M57.7367 236.162C56.2634 236.162 54 235.437 54 233.357C54 231.277 56.2634 230.552 57.7367 230.552C59.1981 230.552 61.471 231.289 61.471 233.357C61.471 235.426 59.1981 236.162 57.7367 236.162ZM57.7248 235.202C58.7133 235.202 60.6726 234.798 60.6726 233.357C60.6726 231.917 58.7133 231.513 57.7248 231.513C56.7387 231.513 54.7616 231.917 54.7616 233.357C54.7616 234.798 56.7387 235.202 57.7248 235.202Z" fill="black"/>
<path d="M57.7367 229.953C56.2634 229.953 54 229.228 54 227.148C54 225.068 56.2634 224.342 57.7367 224.342C59.1981 224.342 61.471 225.08 61.471 227.148C61.471 229.217 59.1981 229.953 57.7367 229.953ZM57.7248 228.993C58.7133 228.993 60.6726 228.589 60.6726 227.148C60.6726 225.708 58.7133 225.304 57.7248 225.304C56.7387 225.304 54.7616 225.708 54.7616 227.148C54.7616 228.589 56.7387 228.993 57.7248 228.993Z" fill="black"/>
<path d="M57.7367 217.533C56.2634 217.533 54 216.808 54 214.728C54 212.648 56.2634 211.922 57.7367 211.922C59.1981 211.922 61.471 212.66 61.471 214.728C61.471 216.797 59.1981 217.533 57.7367 217.533ZM57.7248 216.573C58.7133 216.573 60.6726 216.169 60.6726 214.728C60.6726 213.288 58.7133 212.884 57.7248 212.884C56.7387 212.884 54.7616 213.288 54.7616 214.728C54.7616 216.169 56.7387 216.573 57.7248 216.573Z" fill="black"/>
<path d="M57.6021 209.765C57.2706 210.427 56.6991 210.821 55.9957 210.821C54.8266 210.821 54.0009 209.796 54.0009 208.516C54.0009 207.237 54.8266 206.213 55.9957 206.213C56.6991 206.213 57.2706 206.608 57.6021 207.269C57.8599 206.437 58.5538 206 59.3237 206C60.6532 206 61.4707 207.152 61.4707 208.516C61.4707 209.883 60.6532 211.035 59.3237 211.035C58.5538 211.035 57.8599 210.597 57.6021 209.765ZM55.9957 209.883C56.5672 209.883 57.2124 209.188 57.2124 208.516C57.2124 207.845 56.5672 207.152 55.9957 207.152C55.3114 207.152 54.7613 207.792 54.7613 208.516C54.7613 209.241 55.3114 209.883 55.9957 209.883ZM59.3237 210.073C60.0461 210.073 60.6723 209.305 60.6723 208.516C60.6723 207.728 60.0461 206.96 59.3237 206.96C58.5633 206.96 57.974 207.707 57.974 208.516C57.974 209.328 58.5633 210.073 59.3237 210.073Z" fill="black"/>
</svg>
