<svg width="140" height="300" viewBox="0 0 140 300" fill="none" xmlns="http://www.w3.org/2000/svg">
<g clip-path="url(#clip0_2_1489)">
<path d="M34.7992 213.522L27.1405 213.521" stroke="black" stroke-miterlimit="2" stroke-linecap="round" stroke-linejoin="round"/>
<path d="M34.7992 153.048L27.3392 153.051" stroke="black" stroke-miterlimit="2" stroke-linecap="round" stroke-linejoin="round"/>
<path d="M119.557 11.1733L111.78 11" stroke="black" stroke-miterlimit="2" stroke-linecap="round" stroke-linejoin="round"/>
<path d="M110.268 11.7021C110.675 11.2981 111.21 11.0487 111.782 11.0007" stroke="black" stroke-miterlimit="2" stroke-linecap="round" stroke-linejoin="round"/>
<path d="M108.221 14.6551C108.721 13.5564 109.415 12.5564 110.268 11.7018" stroke="black" stroke-miterlimit="2" stroke-linecap="round" stroke-linejoin="round"/>
<path d="M115.698 14.8349C116.196 13.7363 116.891 12.7363 117.743 11.8816" stroke="black" stroke-miterlimit="2" stroke-linecap="round" stroke-linejoin="round"/>
<path d="M123.607 32.9833C123.475 33.3793 123.319 33.7673 123.137 34.1446" stroke="black" stroke-miterlimit="2" stroke-linecap="round" stroke-linejoin="round"/>
<path d="M123.607 15.8167C124.529 18.5847 125 21.4833 125 24.4006C125 27.3166 124.529 30.2153 123.607 32.9833" stroke="black" stroke-miterlimit="2" stroke-linecap="round" stroke-linejoin="round"/>
<path d="M121.176 11.8818C122.281 12.9871 123.113 14.3351 123.606 15.8164" stroke="black" stroke-miterlimit="2" stroke-linecap="round" stroke-linejoin="round"/>
<path d="M117.743 11.8817C118.199 11.427 118.817 11.171 119.459 11.171C120.105 11.171 120.721 11.427 121.175 11.8817" stroke="black" stroke-miterlimit="2" stroke-linecap="round" stroke-linejoin="round"/>
<path d="M108.221 14.655L43.7784 152.856" stroke="black" stroke-miterlimit="2" stroke-linecap="round" stroke-linejoin="round"/>
<path d="M43.7785 152.856C42.9572 154.368 41.9465 155.768 40.7692 157.021" stroke="black" stroke-miterlimit="2" stroke-linecap="round" stroke-linejoin="round"/>
<path d="M23.3175 154.673C24.3575 153.635 25.7682 153.048 27.2388 153.048C27.2735 153.048 27.3055 153.049 27.3402 153.051" stroke="black" stroke-miterlimit="2" stroke-linecap="round" stroke-linejoin="round"/>
<path d="M17.7603 163.666C18.8896 160.278 20.7909 157.199 23.3176 154.674" stroke="black" stroke-miterlimit="2" stroke-linecap="round" stroke-linejoin="round"/>
<path d="M17.7603 202.905C15.651 196.578 14.575 189.954 14.575 183.285C14.575 176.616 15.651 169.992 17.7603 163.665" stroke="black" stroke-miterlimit="2" stroke-linecap="round" stroke-linejoin="round"/>
<path d="M23.3176 211.897C20.7909 209.371 18.8896 206.293 17.7603 202.905" stroke="black" stroke-miterlimit="2" stroke-linecap="round" stroke-linejoin="round"/>
<path d="M27.3383 213.521C27.305 213.521 27.2717 213.522 27.2397 213.522C25.7677 213.522 24.3583 212.937 23.317 211.897" stroke="black" stroke-miterlimit="2" stroke-linecap="round" stroke-linejoin="round"/>
<path d="M35.0884 188.349L36.379 183.285" stroke="black" stroke-miterlimit="2" stroke-linecap="round" stroke-linejoin="round"/>
<path d="M35.0284 194.197L35.0884 188.349" stroke="black" stroke-miterlimit="2" stroke-linecap="round" stroke-linejoin="round"/>
<path d="M32.9073 197.119L35.0287 194.197" stroke="black" stroke-miterlimit="2" stroke-linecap="round" stroke-linejoin="round"/>
<path d="M31.5922 202.184L32.9068 197.118" stroke="black" stroke-miterlimit="2" stroke-linecap="round" stroke-linejoin="round"/>
<path d="M30.4464 202.184H31.5917" stroke="black" stroke-miterlimit="2" stroke-linecap="round" stroke-linejoin="round"/>
<path d="M30.4464 164.387H31.5917" stroke="black" stroke-miterlimit="2" stroke-linecap="round" stroke-linejoin="round"/>
<path d="M31.5922 164.387L32.9068 169.452" stroke="black" stroke-miterlimit="2" stroke-linecap="round" stroke-linejoin="round"/>
<path d="M32.9073 169.452L35.0287 172.373" stroke="black" stroke-miterlimit="2" stroke-linecap="round" stroke-linejoin="round"/>
<path d="M35.0284 172.374L35.0884 178.222" stroke="black" stroke-miterlimit="2" stroke-linecap="round" stroke-linejoin="round"/>
<path d="M35.0883 178.222L36.3789 183.286" stroke="black" stroke-miterlimit="2" stroke-linecap="round" stroke-linejoin="round"/>
<path d="M42.6482 178.222L43.9375 183.286" stroke="black" stroke-miterlimit="2" stroke-linecap="round" stroke-linejoin="round"/>
<path d="M42.5883 172.374L42.6483 178.222" stroke="black" stroke-miterlimit="2" stroke-linecap="round" stroke-linejoin="round"/>
<path d="M40.4673 169.452L42.5886 172.373" stroke="black" stroke-miterlimit="2" stroke-linecap="round" stroke-linejoin="round"/>
<path d="M39.1509 164.387L40.4669 169.452" stroke="black" stroke-miterlimit="2" stroke-linecap="round" stroke-linejoin="round"/>
<path d="M36.7979 164.387H39.1512" stroke="black" stroke-miterlimit="2" stroke-linecap="round" stroke-linejoin="round"/>
<path d="M34.7993 161.465L36.798 164.386" stroke="black" stroke-miterlimit="2" stroke-linecap="round" stroke-linejoin="round"/>
<path d="M34.7992 161.465L32.7992 164.386" stroke="black" stroke-miterlimit="2" stroke-linecap="round" stroke-linejoin="round"/>
<path d="M32.7993 164.387H30.4459" stroke="black" stroke-miterlimit="2" stroke-linecap="round" stroke-linejoin="round"/>
<path d="M30.4464 164.387L29.1304 169.452" stroke="black" stroke-miterlimit="2" stroke-linecap="round" stroke-linejoin="round"/>
<path d="M29.13 169.452L27.0087 172.373" stroke="black" stroke-miterlimit="2" stroke-linecap="round" stroke-linejoin="round"/>
<path d="M27.0089 172.374L26.9502 178.222" stroke="black" stroke-miterlimit="2" stroke-linecap="round" stroke-linejoin="round"/>
<path d="M26.9503 178.222L25.6583 183.286" stroke="black" stroke-miterlimit="2" stroke-linecap="round" stroke-linejoin="round"/>
<path d="M26.9503 188.349L25.6583 183.285" stroke="black" stroke-miterlimit="2" stroke-linecap="round" stroke-linejoin="round"/>
<path d="M27.0089 194.197L26.9502 188.349" stroke="black" stroke-miterlimit="2" stroke-linecap="round" stroke-linejoin="round"/>
<path d="M29.13 197.119L27.0087 194.197" stroke="black" stroke-miterlimit="2" stroke-linecap="round" stroke-linejoin="round"/>
<path d="M30.4464 202.184L29.1304 197.118" stroke="black" stroke-miterlimit="2" stroke-linecap="round" stroke-linejoin="round"/>
<path d="M32.7993 202.184H30.4459" stroke="black" stroke-miterlimit="2" stroke-linecap="round" stroke-linejoin="round"/>
<path d="M34.7992 205.106L32.7992 202.184" stroke="black" stroke-miterlimit="2" stroke-linecap="round" stroke-linejoin="round"/>
<path d="M34.7992 205.106L36.7979 202.184" stroke="black" stroke-miterlimit="2" stroke-linecap="round" stroke-linejoin="round"/>
<path d="M36.7979 202.184H39.1512" stroke="black" stroke-miterlimit="2" stroke-linecap="round" stroke-linejoin="round"/>
<path d="M39.1508 202.184L40.4668 197.118" stroke="black" stroke-miterlimit="2" stroke-linecap="round" stroke-linejoin="round"/>
<path d="M40.4672 197.119L42.5885 194.197" stroke="black" stroke-miterlimit="2" stroke-linecap="round" stroke-linejoin="round"/>
<path d="M42.5884 194.197L42.6484 188.349" stroke="black" stroke-miterlimit="2" stroke-linecap="round" stroke-linejoin="round"/>
<path d="M42.6482 188.349L43.9375 183.285" stroke="black" stroke-miterlimit="2" stroke-linecap="round" stroke-linejoin="round"/>
<path d="M25.3188 163.666C26.4482 160.278 28.3508 157.199 30.8762 154.674" stroke="black" stroke-miterlimit="2" stroke-linecap="round" stroke-linejoin="round"/>
<path d="M25.3189 202.905C23.2109 196.578 22.1349 189.954 22.1349 183.285C22.1349 176.616 23.2109 169.992 25.3189 163.665" stroke="black" stroke-miterlimit="2" stroke-linecap="round" stroke-linejoin="round"/>
<path d="M30.8761 211.897C28.3507 209.371 26.4481 206.293 25.3187 202.905" stroke="black" stroke-miterlimit="2" stroke-linecap="round" stroke-linejoin="round"/>
<path d="M38.7211 211.897C37.6811 212.936 36.2691 213.523 34.7997 213.523C33.3277 213.523 31.9157 212.936 30.8757 211.897" stroke="black" stroke-miterlimit="2" stroke-linecap="round" stroke-linejoin="round"/>
<path d="M43.3982 205.146C42.2568 207.659 40.6715 209.946 38.7208 211.897" stroke="black" stroke-miterlimit="2" stroke-linecap="round" stroke-linejoin="round"/>
<path d="M38.7211 154.673C39.6637 155.617 40.5251 156.643 41.2904 157.733" stroke="black" stroke-miterlimit="2" stroke-linecap="round" stroke-linejoin="round"/>
<path d="M30.8761 154.673C31.9161 153.635 33.3281 153.048 34.7988 153.048C36.2694 153.048 37.6814 153.635 38.7214 154.673" stroke="black" stroke-miterlimit="2" stroke-linecap="round" stroke-linejoin="round"/>
<path d="M47.8825 157.482C46.9719 158.393 45.7372 158.902 44.4505 158.902C43.2919 158.902 42.1705 158.489 41.2905 157.733" stroke="black" stroke-miterlimit="2" stroke-linecap="round" stroke-linejoin="round"/>
<path d="M51.337 152.856C50.4143 154.556 49.2503 156.113 47.8823 157.482" stroke="black" stroke-miterlimit="2" stroke-linecap="round" stroke-linejoin="round"/>
<path d="M123.223 33.9639L43.2065 205.557" stroke="black" stroke-miterlimit="2" stroke-linecap="round" stroke-linejoin="round"/>
<path d="M115.781 14.6552L51.3369 152.856" stroke="black" stroke-miterlimit="2" stroke-linecap="round" stroke-linejoin="round"/>
<path d="M60.5652 194.259L61.1199 193.342H62.9239V201.384H61.9625V194.259H60.5652Z" fill="black"/>
<path d="M65.6967 197.363C65.6967 195.71 66.422 193.17 68.502 193.17C70.582 193.17 71.3073 195.71 71.3073 197.363C71.3073 199.005 70.57 201.555 68.502 201.555C66.4327 201.555 65.6967 199.005 65.6967 197.363ZM66.6567 197.351C66.6567 198.461 67.0607 200.659 68.502 200.659C69.942 200.659 70.346 198.461 70.346 197.351C70.346 196.243 69.942 194.025 68.502 194.025C67.0607 194.025 66.6567 196.243 66.6567 197.351Z" fill="black"/>
<path d="M73.4194 197.214C72.758 196.84 72.3634 196.2 72.3634 195.411C72.3634 194.099 73.3874 193.171 74.6674 193.171C75.9474 193.171 76.97 194.099 76.97 195.411C76.97 196.2 76.5754 196.84 75.914 197.214C76.746 197.502 77.1834 198.28 77.1834 199.144C77.1834 200.638 76.0327 201.555 74.6674 201.555C73.3007 201.555 72.15 200.638 72.15 199.144C72.15 198.28 72.5874 197.502 73.4194 197.214ZM73.3007 195.411C73.3007 196.051 73.9954 196.776 74.6674 196.776C75.338 196.776 76.0327 196.051 76.0327 195.411C76.0327 194.643 75.3914 194.024 74.6674 194.024C73.942 194.024 73.3007 194.643 73.3007 195.411ZM73.11 199.144C73.11 199.955 73.878 200.659 74.6674 200.659C75.4554 200.659 76.2247 199.955 76.2247 199.144C76.2247 198.291 75.478 197.63 74.6674 197.63C73.8554 197.63 73.11 198.291 73.11 199.144Z" fill="black"/>
<path d="M79.0612 194.259L79.6158 193.342H81.4185V201.384H80.4585V194.259H79.0612Z" fill="black"/>
<path d="M85.7488 197.214C85.0875 196.84 84.6928 196.2 84.6928 195.411C84.6928 194.099 85.7182 193.171 86.9982 193.171C88.2768 193.171 89.3008 194.099 89.3008 195.411C89.3008 196.2 88.9062 196.84 88.2448 197.214C89.0768 197.502 89.5142 198.28 89.5142 199.144C89.5142 200.638 88.3622 201.555 86.9982 201.555C85.6315 201.555 84.4795 200.638 84.4795 199.144C84.4795 198.28 84.9168 197.502 85.7488 197.214ZM85.6315 195.411C85.6315 196.051 86.3262 196.776 86.9982 196.776C87.6688 196.776 88.3622 196.051 88.3622 195.411C88.3622 194.643 87.7222 194.024 86.9982 194.024C86.2728 194.024 85.6315 194.643 85.6315 195.411ZM85.4408 199.144C85.4408 199.955 86.2088 200.659 86.9982 200.659C87.7862 200.659 88.5542 199.955 88.5542 199.144C88.5542 198.291 87.8075 197.63 86.9982 197.63C86.1862 197.63 85.4408 198.291 85.4408 199.144Z" fill="black"/>
<path d="M96 199.336V200.211H95.0827V201.384H94.1227V200.211H90.1533L95.0827 193V199.336H96ZM94.1227 196.019H94.1L91.84 199.336H94.1227V196.019Z" fill="black"/>
</g>
<defs>
<clipPath id="clip0_2_1489">
<rect width="300" height="140" fill="white" transform="translate(140) rotate(90)"/>
</clipPath>
</defs>
</svg>
