<svg width="140" height="300" viewBox="0 0 140 300" fill="none" xmlns="http://www.w3.org/2000/svg">
<path d="M29.6198 31.9117C19.6358 30.3944 12.4504 26.129 12.5851 21.4957C12.7278 16.553 24.3998 10.8664 38.8318 11.0024C53.2664 11.1384 64.3998 16.0544 64.3344 21.9877C64.2904 26.3224 57.2598 29.8024 48.5931 31.453" stroke="black" stroke-miterlimit="500" stroke-linecap="round" stroke-linejoin="round"/>
<path d="M48.0429 37.9822C48.4429 38.3489 48.7002 38.7649 48.7856 39.2289C49.2309 41.6956 44.4362 44.9889 38.3189 46.0276C32.1989 47.0649 26.8736 45.9102 26.4256 43.4422C26.2909 42.6942 26.6149 41.9142 27.3096 41.1596" stroke="black" stroke-miterlimit="500" stroke-linecap="round" stroke-linejoin="round"/>
<path d="M48.1483 41.7529C48.5469 42.1196 48.8056 42.5369 48.8909 43.0023C49.3363 45.4676 44.5416 48.7609 38.4229 49.8009C32.3043 50.8356 26.9803 49.6809 26.5309 47.2143C26.3963 46.4663 26.7243 45.6863 27.4123 44.9303" stroke="black" stroke-miterlimit="500" stroke-linecap="round" stroke-linejoin="round"/>
<path d="M48.1327 45.5265C48.5367 45.8919 48.79 46.3092 48.8727 46.7719C49.3233 49.2412 44.5233 52.5345 38.406 53.5719C32.2887 54.6092 26.9647 53.4545 26.5153 50.9865C26.378 50.2399 26.706 49.4572 27.3993 48.7025" stroke="black" stroke-miterlimit="500" stroke-linecap="round" stroke-linejoin="round"/>
<path d="M48.198 49.2985C48.5967 49.6625 48.854 50.0812 48.938 50.5452C49.3873 53.0118 44.586 56.3038 38.4687 57.3438C32.354 58.3825 27.0273 57.2252 26.5793 54.7585C26.442 54.0105 26.77 53.2305 27.4607 52.4732" stroke="black" stroke-miterlimit="500" stroke-linecap="round" stroke-linejoin="round"/>
<path d="M48.0598 53.0693C48.4598 53.4347 48.7145 53.8533 48.7985 54.3147C49.2505 56.7867 44.4491 60.0773 38.3331 61.116C32.2145 62.152 26.8905 60.9973 26.4411 58.532C26.3038 57.784 26.6318 57.004 27.3238 56.2453" stroke="black" stroke-miterlimit="500" stroke-linecap="round" stroke-linejoin="round"/>
<path d="M48.0416 56.8428C48.443 57.2095 48.699 57.6281 48.7803 58.0908C49.2283 60.5601 44.431 63.8521 38.315 64.8895C32.199 65.9268 26.8696 64.7721 26.423 62.3028C26.2883 61.5588 26.615 60.7748 27.307 60.0215" stroke="black" stroke-miterlimit="500" stroke-linecap="round" stroke-linejoin="round"/>
<path d="M48.0429 60.6176C48.4429 60.983 48.7002 61.399 48.7856 61.8643C49.2309 64.331 44.4362 67.623 38.3189 68.663C32.1989 69.7003 26.8736 68.5443 26.4256 66.0763C26.2909 65.3296 26.6149 64.5483 27.3096 63.7936" stroke="black" stroke-miterlimit="500" stroke-linecap="round" stroke-linejoin="round"/>
<path d="M48.1132 64.3805C48.5119 64.7459 48.7706 65.1645 48.8559 65.6272C49.3012 68.0952 44.5412 71.3952 38.4226 72.4339C32.3052 73.4712 26.9799 72.3152 26.5306 69.8499C26.3959 69.1005 26.7239 68.3219 27.4132 67.5659" stroke="black" stroke-miterlimit="500" stroke-linecap="round" stroke-linejoin="round"/>
<path d="M48.0976 68.1527C48.5016 68.518 48.755 68.938 48.8376 69.3993C49.2883 71.8687 44.523 75.1687 38.4056 76.2073C32.2896 77.242 26.9643 76.0887 26.515 73.6207C26.3776 72.8753 26.7056 72.0927 27.4003 71.338" stroke="black" stroke-miterlimit="500" stroke-linecap="round" stroke-linejoin="round"/>
<path d="M48.1627 71.924C48.5614 72.2893 48.8187 72.7067 48.9027 73.1707C49.352 75.64 44.5854 78.94 38.468 79.9773C32.3547 81.016 27.0267 79.86 26.5787 77.392C26.4414 76.644 26.7694 75.864 27.4614 75.1093" stroke="black" stroke-miterlimit="500" stroke-linecap="round" stroke-linejoin="round"/>
<path d="M48.0248 75.6957C48.4248 76.0624 48.6794 76.481 48.7634 76.9424C49.2154 79.4144 44.4488 82.713 38.3328 83.7504C32.2154 84.7877 26.8901 83.6317 26.4408 81.1664C26.3034 80.4184 26.6314 79.6384 27.3248 78.881" stroke="black" stroke-miterlimit="500" stroke-linecap="round" stroke-linejoin="round"/>
<path d="M48.0065 79.4683C48.4078 79.835 48.6638 80.255 48.7452 80.7176C49.1932 83.1856 44.4305 86.487 38.3145 87.5243C32.1998 88.5616 26.8692 87.4056 26.4225 84.939C26.2878 84.1923 26.6145 83.411 27.3078 82.6576" stroke="black" stroke-miterlimit="500" stroke-linecap="round" stroke-linejoin="round"/>
<path d="M48.0079 83.2433C48.4079 83.61 48.6652 84.026 48.7505 84.49C49.1959 86.958 44.4359 90.2593 38.3185 91.2966C32.1999 92.334 26.8732 91.1793 26.4252 88.7113C26.2905 87.9633 26.6145 87.1833 27.3105 86.4286" stroke="black" stroke-miterlimit="500" stroke-linecap="round" stroke-linejoin="round"/>
<path d="M48.1132 87.0146C48.5119 87.3813 48.7706 87.7986 48.8559 88.2626C49.3012 90.7293 44.5412 94.0306 38.4226 95.0693C32.3052 96.1053 26.9799 94.9493 26.5306 92.484C26.3959 91.7373 26.7239 90.956 27.4132 90.2" stroke="black" stroke-miterlimit="500" stroke-linecap="round" stroke-linejoin="round"/>
<path d="M48.0976 90.7874C48.5016 91.1527 48.755 91.5714 48.8376 92.0341C49.2883 94.5021 44.523 97.8034 38.4056 98.8407C32.2896 99.8781 26.9643 98.7234 26.515 96.2567C26.3776 95.5087 26.7056 94.7274 27.4003 93.9714" stroke="black" stroke-miterlimit="500" stroke-linecap="round" stroke-linejoin="round"/>
<path d="M48.082 94.5381C48.4807 94.9021 48.738 95.3207 48.822 95.7847C49.2713 98.2527 44.586 101.574 38.4687 102.613C32.354 103.651 27.0273 102.494 26.5793 100.027C26.442 99.2794 26.77 98.4994 27.4607 97.7421" stroke="black" stroke-miterlimit="500" stroke-linecap="round" stroke-linejoin="round"/>
<path d="M47.9439 98.3096C48.3439 98.6749 48.7946 99.1109 48.8773 99.5722C49.3293 102.044 44.4493 105.347 38.3333 106.386C32.2146 107.422 26.8906 106.266 26.4413 103.8C26.3039 103.055 26.6319 102.274 27.3239 101.515" stroke="black" stroke-miterlimit="500" stroke-linecap="round" stroke-linejoin="round"/>
<path d="M47.9258 102.082C48.3272 102.449 48.7965 102.898 48.8778 103.361C49.3258 105.83 44.4312 109.121 38.3152 110.158C32.1992 111.197 26.8698 110.041 26.4232 107.573C26.2872 106.828 26.6152 106.045 27.3072 105.29" stroke="black" stroke-miterlimit="500" stroke-linecap="round" stroke-linejoin="round"/>
<path d="M47.927 105.857C48.327 106.222 48.7923 106.629 48.8776 107.093C49.323 109.561 44.4363 112.893 38.319 113.932C32.199 114.968 26.8736 113.813 26.4256 111.345C26.2896 110.598 26.615 109.817 27.3096 109.062" stroke="black" stroke-miterlimit="500" stroke-linecap="round" stroke-linejoin="round"/>
<path d="M48.0325 109.629C48.4311 109.994 48.6898 110.411 48.7751 110.875C49.2205 113.343 44.5418 116.665 38.4231 117.703C32.3045 118.741 26.9805 117.585 26.5311 115.118C26.3951 114.37 26.7245 113.59 27.4125 112.835" stroke="black" stroke-miterlimit="500" stroke-linecap="round" stroke-linejoin="round"/>
<path d="M48.0169 113.4C48.4209 113.767 48.6743 114.185 48.7569 114.647C49.2076 117.116 44.5236 120.437 38.4063 121.476C32.2889 122.512 26.9649 121.357 26.5156 118.891C26.3783 118.144 26.7063 117.361 27.3996 116.607" stroke="black" stroke-miterlimit="500" stroke-linecap="round" stroke-linejoin="round"/>
<path d="M48.082 117.172C48.4807 117.537 48.738 117.955 48.822 118.419C49.2713 120.888 44.586 124.209 38.4687 125.247C32.354 126.284 27.0273 125.129 26.5793 122.663C26.442 121.913 26.77 121.133 27.4607 120.377" stroke="black" stroke-miterlimit="500" stroke-linecap="round" stroke-linejoin="round"/>
<path d="M47.9439 120.944C48.3439 121.31 48.7386 121.728 48.8213 122.19C49.2733 124.661 44.4493 127.982 38.3333 129.02C32.2146 130.057 26.8906 128.901 26.4413 126.434C26.3039 125.688 26.6319 124.906 27.3239 124.15" stroke="black" stroke-miterlimit="500" stroke-linecap="round" stroke-linejoin="round"/>
<path d="M47.9258 124.716C48.3272 125.083 48.7405 125.518 48.8218 125.979C49.2698 128.448 44.4312 131.756 38.3152 132.794C32.1992 133.831 26.8698 132.675 26.4232 130.208C26.2872 129.462 26.6152 128.68 27.3072 127.926" stroke="black" stroke-miterlimit="500" stroke-linecap="round" stroke-linejoin="round"/>
<path d="M47.9519 128.614C48.3519 128.98 48.6092 129.398 48.6945 129.862C49.1399 132.328 44.4359 135.528 38.3185 136.566C32.1999 137.603 26.8732 136.448 26.4252 133.98C26.2905 133.232 26.6145 132.452 27.3105 131.698" stroke="black" stroke-miterlimit="500" stroke-linecap="round" stroke-linejoin="round"/>
<path d="M48.0572 132.386C48.4559 132.752 48.7146 133.168 48.7999 133.634C49.2452 136.1 44.5412 139.3 38.4226 140.338C32.3052 141.375 26.9799 140.219 26.5306 137.752C26.3959 137.006 26.7239 136.224 27.4132 135.47" stroke="black" stroke-miterlimit="500" stroke-linecap="round" stroke-linejoin="round"/>
<path d="M48.0416 136.158C48.4456 136.524 48.699 136.942 48.7816 137.404C49.2323 139.873 44.523 143.073 38.4056 144.11C32.2896 145.146 26.9643 143.993 26.515 141.525C26.3776 140.778 26.7056 139.996 27.4003 139.241" stroke="black" stroke-miterlimit="500" stroke-linecap="round" stroke-linejoin="round"/>
<path d="M48.1067 139.93C48.5054 140.294 48.7627 140.714 48.8467 141.178C49.296 143.645 44.5854 146.843 38.468 147.882C32.3547 148.921 27.0267 147.763 26.5787 145.297C26.4414 144.549 26.7694 143.769 27.4614 143.011" stroke="black" stroke-miterlimit="500" stroke-linecap="round" stroke-linejoin="round"/>
<path d="M47.9688 143.702C48.3688 144.067 48.6234 144.485 48.7074 144.947C49.1594 147.419 44.4488 150.617 38.3328 151.654C32.2154 152.691 26.8901 151.535 26.4408 149.07C26.3034 148.323 26.6314 147.542 27.3248 146.785" stroke="black" stroke-miterlimit="500" stroke-linecap="round" stroke-linejoin="round"/>
<path d="M47.9505 147.475C48.3518 147.842 48.6078 148.259 48.6892 148.723C49.1372 151.192 44.4305 154.391 38.3145 155.428C32.1998 156.466 26.8692 155.311 26.4225 152.842C26.2878 152.098 26.6145 151.314 27.3078 150.56" stroke="black" stroke-miterlimit="500" stroke-linecap="round" stroke-linejoin="round"/>
<path d="M47.9519 151.249C48.3519 151.615 48.6092 152.032 48.6945 152.496C49.1399 154.964 44.4359 158.163 38.3185 159.2C32.1999 160.239 26.8732 159.083 26.4252 156.615C26.2905 155.868 26.6145 155.087 27.3105 154.332" stroke="black" stroke-miterlimit="500" stroke-linecap="round" stroke-linejoin="round"/>
<path d="M48.0572 155.021C48.4559 155.387 48.7146 155.804 48.7999 156.268C49.2452 158.736 44.5412 161.935 38.4226 162.972C32.3052 164.009 26.9799 162.855 26.5306 160.388C26.3959 159.64 26.7239 158.86 27.4132 158.105" stroke="black" stroke-miterlimit="500" stroke-linecap="round" stroke-linejoin="round"/>
<path d="M48.0416 158.792C48.4456 159.159 48.699 159.577 48.7816 160.04C49.2323 162.508 44.523 165.707 38.4056 166.745C32.2896 167.781 26.9643 166.627 26.515 164.159C26.3776 163.413 26.7056 162.629 27.4003 161.876" stroke="black" stroke-miterlimit="500" stroke-linecap="round" stroke-linejoin="round"/>
<path d="M48.0404 162.636C48.4391 163.002 48.6964 163.42 48.7804 163.883C49.2297 166.352 44.5857 169.479 38.4684 170.515C32.3537 171.554 27.0271 170.398 26.5791 167.931C26.4417 167.183 26.7697 166.403 27.4604 165.647" stroke="black" stroke-miterlimit="500" stroke-linecap="round" stroke-linejoin="round"/>
<path d="M48.0403 166.369C48.4403 166.735 48.695 167.153 48.779 167.615C49.231 170.086 44.4496 173.251 38.3336 174.289C32.215 175.326 26.891 174.17 26.4416 171.703C26.303 170.957 26.631 170.175 27.3243 169.421" stroke="black" stroke-miterlimit="500" stroke-linecap="round" stroke-linejoin="round"/>
<path d="M48.0403 170.157C48.4416 170.525 48.6976 170.944 48.779 171.406C49.227 173.874 44.431 177.025 38.315 178.062C32.199 179.101 26.8696 177.945 26.423 175.477C26.2883 174.732 26.615 173.949 27.307 173.194" stroke="black" stroke-miterlimit="500" stroke-linecap="round" stroke-linejoin="round"/>
<path d="M48.0964 174.001C48.4964 174.368 48.7537 174.785 48.839 175.248C49.2844 177.716 44.4364 180.797 38.319 181.834C32.199 182.872 26.8737 181.717 26.4257 179.25C26.291 178.501 26.615 177.722 27.3097 176.968" stroke="black" stroke-miterlimit="500" stroke-linecap="round" stroke-linejoin="round"/>
<path d="M48.0963 177.789C48.4963 178.156 48.7536 178.572 48.839 179.037C49.2843 181.504 44.5603 184.568 38.4443 185.607C32.3243 186.644 26.999 185.489 26.551 183.021C26.415 182.273 26.739 181.493 27.4336 180.739" stroke="black" stroke-miterlimit="500" stroke-linecap="round" stroke-linejoin="round"/>
<path d="M48.0963 181.578C48.4976 181.944 48.7536 182.36 48.8403 182.824C49.2856 185.292 44.6843 188.34 38.5683 189.378C32.4496 190.415 26.9376 189.28 26.4896 186.814C26.3536 186.066 26.6789 185.286 27.3723 184.53" stroke="black" stroke-miterlimit="500" stroke-linecap="round" stroke-linejoin="round"/>
<path d="M48.0587 185.466C48.46 185.833 48.716 186.249 48.8027 186.713C49.248 189.181 44.6467 192.229 38.5307 193.266C32.412 194.304 26.9 193.169 26.452 190.702C26.316 189.954 26.6413 189.174 27.3347 188.418" stroke="black" stroke-miterlimit="500" stroke-linecap="round" stroke-linejoin="round"/>
<path d="M48.0587 189.072C48.46 189.439 48.716 189.855 48.8027 190.319C49.248 192.787 44.6467 195.835 38.5307 196.872C32.412 197.91 26.9 196.775 26.452 194.308C26.316 193.56 26.6413 192.78 27.3347 192.024" stroke="black" stroke-miterlimit="500" stroke-linecap="round" stroke-linejoin="round"/>
<path d="M34.9895 23.7626L31.6228 21.2186L35.0668 18.5946L43.0268 18.512L46.8281 21.228L43.0521 23.88L34.9895 23.7626Z" stroke="black" stroke-miterlimit="2" stroke-linecap="round" stroke-linejoin="round"/>
<path d="M35.078 23.555L35.066 18.6777" stroke="black" stroke-miterlimit="2" stroke-linecap="round" stroke-linejoin="round"/>
<path d="M43.0442 23.253L43.0269 18.5116" stroke="black" stroke-miterlimit="2" stroke-linecap="round" stroke-linejoin="round"/>
<path d="M47.3256 193.393C47.3256 193.393 48.3989 194.849 45.4896 196.366C42.5802 197.885 36.1282 198.77 31.8256 197.253" stroke="black" stroke-miterlimit="500" stroke-linecap="round" stroke-linejoin="round"/>
<path d="M12.8945 20.0766C12.8945 20.0766 9.28781 23.098 10.1265 26.9566C10.9651 30.8166 20.4478 37.2766 39.0731 37.3606C57.6985 37.4446 69.2745 28.718 66.3385 23.8526C66.3385 23.8526 65.0825 21.0833 64.0745 20.1606" stroke="black" stroke-miterlimit="500" stroke-linecap="round" stroke-linejoin="round"/>
<path d="M66.7591 26.6208L66.7778 30.0848C65.6551 34.9554 54.9351 41.2074 39.1565 41.1368C20.5311 41.0528 11.0485 34.5928 10.2098 30.7328C10.1285 30.3594 10.0898 29.9941 10.0845 29.6394L10.1258 26.9568" stroke="black" stroke-miterlimit="500" stroke-linecap="round" stroke-linejoin="round"/>
<path d="M61.089 193.183L60.1716 192.629V190.826H68.2143V191.786H61.089V193.183Z" fill="black"/>
<path d="M64.1813 187.093C65.2907 187.093 67.488 186.688 67.488 185.248C67.488 183.808 65.2907 183.402 64.1813 183.402C63.0733 183.402 60.8547 183.808 60.8547 185.248C60.8547 186.688 63.0733 187.093 64.1813 187.093ZM64.1933 188.053C62.54 188.053 60 187.328 60 185.248C60 183.168 62.54 182.442 64.1933 182.442C65.8347 182.442 68.384 183.178 68.384 185.248C68.384 187.317 65.8347 188.053 64.1933 188.053Z" fill="black"/>
<path d="M61.089 179.061L62.7423 179.562L62.7103 178.997C62.7103 177.44 64.0436 176.416 65.5263 176.416C67.2223 176.416 68.385 177.738 68.385 179.392C68.385 180.384 67.8623 181.376 66.977 181.845L66.273 181.098C66.9543 180.853 67.4676 180.032 67.4676 179.317C67.4676 178.229 66.5703 177.376 65.4943 177.376C64.4583 177.376 63.585 178.261 63.585 179.296C63.585 179.861 63.8516 180.448 64.2996 180.8V180.992L60.1716 179.754V176.533H61.089V179.061Z" fill="black"/>
<path d="M61.089 174.688L60.1716 174.133V172.331H68.2143V173.291H61.089V174.688Z" fill="black"/>
<path d="M61.089 168.523L60.1716 167.968V166.165H68.2143V167.125H61.089V168.523Z" fill="black"/>
<path d="M61.089 162.357L60.1716 161.803V160H68.2143V160.96H61.089V162.357Z" fill="black"/>
</svg>
