<svg width="140" height="300" viewBox="0 0 140 300" fill="none" xmlns="http://www.w3.org/2000/svg">
<path d="M35.8548 121.588C35.7815 121.963 35.7455 122.343 35.7455 122.727C35.7455 123.271 35.8215 123.815 35.9668 124.34" stroke="black" stroke-miterlimit="2" stroke-linecap="round" stroke-linejoin="round"/>
<path d="M40.334 113.627C38.0193 115.726 36.4473 118.521 35.8553 121.589" stroke="black" stroke-miterlimit="2" stroke-linecap="round" stroke-linejoin="round"/>
<path d="M42.7455 112.294C41.8495 112.546 41.0242 113.002 40.3335 113.627" stroke="black" stroke-miterlimit="2" stroke-linecap="round" stroke-linejoin="round"/>
<path d="M43.6465 112.234C43.5451 112.221 43.4438 112.213 43.3411 112.213C43.1398 112.213 42.9398 112.242 42.7451 112.294" stroke="black" stroke-miterlimit="2" stroke-linecap="round" stroke-linejoin="round"/>
<path d="M35.9668 124.341C36.0708 124.707 36.2668 125.043 36.5375 125.313" stroke="black" stroke-miterlimit="2" stroke-linecap="round" stroke-linejoin="round"/>
<path d="M78.6987 22.5043C78.9174 23.079 79.3347 23.5416 79.8561 23.827" stroke="black" stroke-miterlimit="2" stroke-linecap="round" stroke-linejoin="round"/>
<path d="M78.3653 20.0942C78.352 20.2635 78.3413 20.4328 78.3413 20.6008C78.3413 21.2515 78.464 21.8955 78.6986 22.5048" stroke="black" stroke-miterlimit="2" stroke-linecap="round" stroke-linejoin="round"/>
<path d="M81.2949 13.49C79.6283 15.318 78.6016 17.6353 78.3656 20.094" stroke="black" stroke-miterlimit="2" stroke-linecap="round" stroke-linejoin="round"/>
<path d="M83.3015 12.1163C82.5348 12.4123 81.8468 12.8816 81.2948 13.4896" stroke="black" stroke-miterlimit="2" stroke-linecap="round" stroke-linejoin="round"/>
<path d="M85.1778 12.1305C84.8751 12.0078 84.5498 11.9452 84.2204 11.9452C83.9071 11.9452 83.5938 12.0025 83.3018 12.1158" stroke="black" stroke-miterlimit="2" stroke-linecap="round" stroke-linejoin="round"/>
<path d="M66.9434 6.68007L81.2407 12.9494" stroke="black" stroke-miterlimit="2" stroke-linecap="round" stroke-linejoin="round"/>
<path d="M64.2324 12.1136L78.3551 18.3443" stroke="black" stroke-miterlimit="2" stroke-linecap="round" stroke-linejoin="round"/>
<path d="M58.2155 122.781L53.8102 129.021" stroke="black" stroke-miterlimit="2" stroke-linecap="round" stroke-linejoin="round"/>
<path d="M53.8105 129.021V135.078" stroke="black" stroke-miterlimit="2" stroke-linecap="round" stroke-linejoin="round"/>
<path d="M40.877 113.19L58.2156 122.781" stroke="black" stroke-miterlimit="2" stroke-linecap="round" stroke-linejoin="round"/>
<path d="M62.6205 122.781H58.2152" stroke="black" stroke-miterlimit="2" stroke-linecap="round" stroke-linejoin="round"/>
<path d="M36.502 119.281L53.81 129.021" stroke="black" stroke-miterlimit="2" stroke-linecap="round" stroke-linejoin="round"/>
<path d="M45.1296 113.06L62.6203 122.781" stroke="black" stroke-miterlimit="2" stroke-linecap="round" stroke-linejoin="round"/>
<path d="M24.0553 101.344L45.13 113.06" stroke="black" stroke-miterlimit="2" stroke-linecap="round" stroke-linejoin="round"/>
<path d="M107.307 42.0863L20.9773 98.5183" stroke="black" stroke-miterlimit="2" stroke-linecap="round" stroke-linejoin="round"/>
<path d="M71.14 6.00046L104.003 20.4271" stroke="black" stroke-miterlimit="2" stroke-linecap="round" stroke-linejoin="round"/>
<path d="M66.9434 6.67999L71.1394 5.99999" stroke="black" stroke-miterlimit="2" stroke-linecap="round" stroke-linejoin="round"/>
<path d="M64.2324 12.1137L66.9431 6.68038" stroke="black" stroke-miterlimit="2" stroke-linecap="round" stroke-linejoin="round"/>
<path d="M65.9031 17.3103L64.2324 12.1143" stroke="black" stroke-miterlimit="2" stroke-linecap="round" stroke-linejoin="round"/>
<path d="M98.5879 32.7738L65.9026 17.3098" stroke="black" stroke-miterlimit="2" stroke-linecap="round" stroke-linejoin="round"/>
<path d="M14.6947 85.9275L98.68 32.7262" stroke="black" stroke-miterlimit="2" stroke-linecap="round" stroke-linejoin="round"/>
<path d="M37.2324 125.706L15.2457 113.276" stroke="black" stroke-miterlimit="2" stroke-linecap="round" stroke-linejoin="round"/>
<path d="M53.8106 135.078L37.2319 125.706" stroke="black" stroke-miterlimit="2" stroke-linecap="round" stroke-linejoin="round"/>
<path d="M58.2155 134.896L53.8102 135.078" stroke="black" stroke-miterlimit="2" stroke-linecap="round" stroke-linejoin="round"/>
<path d="M62.6205 128.653L58.2152 134.896" stroke="black" stroke-miterlimit="2" stroke-linecap="round" stroke-linejoin="round"/>
<path d="M62.6206 122.781V128.653" stroke="black" stroke-miterlimit="2" stroke-linecap="round" stroke-linejoin="round"/>
<path d="M14.6947 85.9275C9.924 88.7608 7 93.8982 7 99.4448C7 105.218 10.1653 110.529 15.2453 113.276" stroke="black" stroke-miterlimit="2" stroke-linecap="round" stroke-linejoin="round"/>
<path d="M22.2741 91.3565C20.7395 92.3538 19.7688 94.0752 19.7688 95.9738C19.7688 98.5445 21.6515 99.8672 24.0555 101.346" stroke="black" stroke-miterlimit="2" stroke-linecap="round" stroke-linejoin="round"/>
<path d="M107.308 42.0863C110.571 39.6143 112.816 36.0756 112.816 31.9956C112.816 26.5943 109.111 22.5263 104.003 20.4276" stroke="black" stroke-miterlimit="2" stroke-linecap="round" stroke-linejoin="round"/>
<path d="M98.6805 32.7256C100.454 31.4083 100.98 30.467 100.98 28.8523C100.98 27.1696 100.035 25.691 98.6205 24.947" stroke="black" stroke-miterlimit="2" stroke-linecap="round" stroke-linejoin="round"/>
<path d="M89.1471 129.36L88.2297 128.805V127H96.2724V127.961H89.1471V129.36Z" fill="black"/>
<path d="M92.1933 125.053C90.54 125.053 88 124.329 88 122.247C88 120.167 90.54 119.443 92.1933 119.443C93.8347 119.443 96.3853 120.181 96.3853 122.247C96.3853 124.318 93.8347 125.053 92.1933 125.053ZM92.1813 124.094C93.2907 124.094 95.4893 123.689 95.4893 122.247C95.4893 120.807 93.2907 120.405 92.1813 120.405C91.0733 120.405 88.8547 120.807 88.8547 122.247C88.8547 123.689 91.0733 124.094 92.1813 124.094Z" fill="black"/>
<path d="M92.1933 118.889C90.54 118.889 88 118.162 88 116.083C88 114.003 90.54 113.279 92.1933 113.279C93.8347 113.279 96.3853 114.014 96.3853 116.083C96.3853 118.151 93.8347 118.889 92.1933 118.889ZM92.1813 117.927C93.2907 117.927 95.4893 117.525 95.4893 116.083C95.4893 114.643 93.2907 114.238 92.1813 114.238C91.0733 114.238 88.8547 114.643 88.8547 116.083C88.8547 117.525 91.0733 117.927 92.1813 117.927Z" fill="black"/>
<path d="M92.1933 112.724C90.54 112.724 88 111.998 88 109.918C88 107.839 90.54 107.112 92.1933 107.112C93.8347 107.112 96.3853 107.85 96.3853 109.918C96.3853 111.987 93.8347 112.724 92.1933 112.724ZM92.1813 111.763C93.2907 111.763 95.4893 111.358 95.4893 109.918C95.4893 108.476 93.2907 108.074 92.1813 108.074C91.0733 108.074 88.8547 108.476 88.8547 109.918C88.8547 111.358 91.0733 111.763 92.1813 111.763Z" fill="black"/>
<path d="M92.1933 106.558C90.54 106.558 88 105.834 88 103.752C88 101.672 90.54 100.948 92.1933 100.948C93.8347 100.948 96.3853 101.683 96.3853 103.752C96.3853 105.823 93.8347 106.558 92.1933 106.558ZM92.1813 105.596C93.2907 105.596 95.4893 105.194 95.4893 103.752C95.4893 102.312 93.2907 101.907 92.1813 101.907C91.0733 101.907 88.8547 102.312 88.8547 103.752C88.8547 105.194 91.0733 105.596 92.1813 105.596Z" fill="black"/>
<path d="M89.0891 99.3573L88.1718 98.8027V97H96.2144V97.9613H89.0891V99.3573Z" fill="black"/>
</svg>
