<svg width="55" height="59" viewBox="0 0 55 59" fill="none" xmlns="http://www.w3.org/2000/svg">
<path d="M50.2579 30.2095L15.538 51.2919C14.2052 52.1012 12.5 51.1417 12.5 49.5824L12.5 7.41762C12.5 5.8583 14.2052 4.89878 15.538 5.7081L50.2579 26.7905C51.5406 27.5693 51.5406 29.4307 50.2579 30.2095Z" fill="#494949" fill-opacity="0.5" stroke="#3C3C3C" stroke-width="2"/>
<path d="M18.742 23.712C19.106 23.4693 19.484 23.3013 19.876 23.208C20.268 23.1053 20.6413 23.054 20.996 23.054C21.388 23.054 21.7473 23.11 22.074 23.222C22.41 23.334 22.6947 23.4927 22.928 23.698C23.1613 23.894 23.3433 24.132 23.474 24.412C23.6047 24.6827 23.67 24.9813 23.67 25.308C23.67 25.8587 23.5253 26.316 23.236 26.68C22.956 27.044 22.6107 27.3007 22.2 27.45C22.7133 27.562 23.138 27.8093 23.474 28.192C23.81 28.5653 23.978 29.018 23.978 29.55C23.978 30.026 23.8847 30.4273 23.698 30.754C23.5113 31.0807 23.2687 31.3467 22.97 31.552C22.6713 31.748 22.3307 31.8927 21.948 31.986C21.5747 32.0793 21.192 32.126 20.8 32.126C20.408 32.126 20.016 32.0887 19.624 32.014C19.232 31.9393 18.8867 31.832 18.588 31.692L18.868 30.74C19.0267 30.796 19.176 30.852 19.316 30.908C19.456 30.9547 19.6007 30.9967 19.75 31.034C19.8993 31.062 20.0533 31.0853 20.212 31.104C20.38 31.1227 20.5713 31.132 20.786 31.132C21.0193 31.132 21.248 31.104 21.472 31.048C21.7053 30.992 21.9107 30.8987 22.088 30.768C22.2653 30.6373 22.41 30.474 22.522 30.278C22.634 30.0727 22.69 29.8207 22.69 29.522C22.69 29.2607 22.6387 29.032 22.536 28.836C22.4427 28.64 22.3073 28.4813 22.13 28.36C21.962 28.2387 21.7613 28.15 21.528 28.094C21.2947 28.0287 21.038 27.996 20.758 27.996H19.708V27.044H20.52C21.0613 27.044 21.5093 26.9133 21.864 26.652C22.228 26.3907 22.41 25.9893 22.41 25.448C22.41 25.252 22.368 25.07 22.284 24.902C22.2093 24.7247 22.102 24.5753 21.962 24.454C21.8313 24.3233 21.6727 24.2207 21.486 24.146C21.3087 24.0713 21.1127 24.034 20.898 24.034C20.5993 24.034 20.3193 24.0713 20.058 24.146C19.7967 24.2207 19.4887 24.3607 19.134 24.566L18.742 23.712Z" fill="white"/>
<path d="M28.8533 23.18C29.4786 23.18 30.0573 23.2687 30.5893 23.446C31.1213 23.6233 31.5786 23.8893 31.9613 24.244C32.3533 24.5893 32.6566 25.028 32.8713 25.56C33.0953 26.0827 33.2073 26.694 33.2073 27.394C33.2073 28.2433 33.0766 28.962 32.8153 29.55C32.5539 30.138 32.1993 30.614 31.7513 30.978C31.3126 31.342 30.7993 31.6033 30.2113 31.762C29.6326 31.9207 29.0166 32 28.3633 32H25.9833V23.18H28.8533ZM27.2713 30.936H28.2373C28.6853 30.936 29.1239 30.8893 29.5533 30.796C29.9826 30.6933 30.3606 30.5113 30.6873 30.25C31.0233 29.9793 31.2939 29.6153 31.4993 29.158C31.7046 28.7007 31.8073 28.1127 31.8073 27.394C31.8073 26.89 31.7326 26.442 31.5833 26.05C31.4339 25.658 31.2193 25.3313 30.9393 25.07C30.6593 24.7993 30.3186 24.594 29.9173 24.454C29.5253 24.314 29.0866 24.244 28.6013 24.244H27.2713V30.936Z" fill="white"/>
</svg>
